<mxfile host="app.diagrams.net" modified="2024-05-30T01:35:22.530Z" agent="Mozilla/5.0 (Windows NT 10.0; Win64; x64) AppleWebKit/537.36 (KHTML, like Gecko) Chrome/125.0.0.0 Safari/537.36" etag="MYL0wPvb3n3mWFovzKlo" version="24.4.4" type="github">
  <diagram id="31b32b95-0358-9bc7-6ba0-a27c054ed1a7" name="Page-1">
    <mxGraphModel dx="1674" dy="746" grid="1" gridSize="10" guides="1" tooltips="1" connect="1" arrows="1" fold="1" page="1" pageScale="1" pageWidth="827" pageHeight="1169" background="none" math="0" shadow="0">
      <root>
        <mxCell id="0" />
        <mxCell id="1" parent="0" />
        <mxCell id="2" value="" style="swimlane;shadow=0;strokeColor=#6c8ebf;fillColor=#dae8fc;align=center;startSize=0;collapsible=0;strokeWidth=3;" parent="1" vertex="1">
          <mxGeometry x="70" y="140" width="1540" height="960" as="geometry" />
        </mxCell>
        <mxCell id="3" value="PUBLIC NETWORK" style="text;html=1;align=left;verticalAlign=top;fontColor=#4277BB;shadow=0;dashed=0;strokeColor=none;fillColor=none;labelBackgroundColor=none;fontStyle=1;fontSize=16;spacingLeft=5;" parent="2" vertex="1">
          <mxGeometry width="170" height="30" as="geometry" />
        </mxCell>
        <mxCell id="5" value="PROVIDER CLOUD" style="text;html=1;align=left;verticalAlign=top;fontColor=#4277BB;shadow=0;dashed=0;strokeColor=none;fillColor=none;labelBackgroundColor=none;fontStyle=1;fontSize=16;spacingLeft=5;" parent="2" vertex="1">
          <mxGeometry x="210" width="180" height="35" as="geometry" />
        </mxCell>
        <mxCell id="16" value="" style="line;strokeWidth=3;direction=south;html=1;shadow=0;labelBackgroundColor=none;fillColor=none;gradientColor=none;fontSize=12;fontColor=#4277BB;align=right;strokeColor=#4277BB;" parent="2" vertex="1">
          <mxGeometry x="205" width="10" height="960" as="geometry" />
        </mxCell>
        <mxCell id="deoy2cFSpnk__pdyX7yM-97" style="edgeStyle=orthogonalEdgeStyle;rounded=0;orthogonalLoop=1;jettySize=auto;html=1;strokeWidth=3;fillColor=#dae8fc;strokeColor=#6c8ebf;exitX=1;exitY=0.5;exitDx=0;exitDy=0;" parent="2" source="deoy2cFSpnk__pdyX7yM-106" target="deoy2cFSpnk__pdyX7yM-96" edge="1">
          <mxGeometry relative="1" as="geometry">
            <mxPoint x="73" y="446" as="sourcePoint" />
          </mxGeometry>
        </mxCell>
        <mxCell id="deoy2cFSpnk__pdyX7yM-135" style="edgeStyle=orthogonalEdgeStyle;rounded=0;orthogonalLoop=1;jettySize=auto;html=1;entryX=0;entryY=0.5;entryDx=0;entryDy=0;shadow=0;strokeColor=#6c8ebf;strokeWidth=3;align=center;verticalAlign=middle;fontFamily=Helvetica;fontSize=12;fontColor=default;fontStyle=1;startSize=0;fillColor=#dae8fc;" parent="2" source="deoy2cFSpnk__pdyX7yM-96" target="deoy2cFSpnk__pdyX7yM-125" edge="1">
          <mxGeometry relative="1" as="geometry">
            <Array as="points" />
          </mxGeometry>
        </mxCell>
        <mxCell id="deoy2cFSpnk__pdyX7yM-148" value="&lt;font color=&quot;#4277bb&quot; style=&quot;font-size: 15px;&quot;&gt;反向代理&lt;/font&gt;" style="edgeLabel;html=1;align=center;verticalAlign=middle;resizable=0;points=[];" parent="deoy2cFSpnk__pdyX7yM-135" vertex="1" connectable="0">
          <mxGeometry x="-0.0436" y="1" relative="1" as="geometry">
            <mxPoint x="16" as="offset" />
          </mxGeometry>
        </mxCell>
        <mxCell id="VO87fzGyyJs7BhhGHUsH-27" style="edgeStyle=orthogonalEdgeStyle;rounded=0;orthogonalLoop=1;jettySize=auto;html=1;shadow=0;strokeColor=#6c8ebf;strokeWidth=3;align=center;verticalAlign=middle;fontFamily=Helvetica;fontSize=12;fontColor=default;fontStyle=1;labelBackgroundColor=default;startSize=0;endArrow=classic;fillColor=#dae8fc;" parent="2" source="deoy2cFSpnk__pdyX7yM-96" target="VO87fzGyyJs7BhhGHUsH-20" edge="1">
          <mxGeometry relative="1" as="geometry">
            <Array as="points">
              <mxPoint x="300" y="446" />
            </Array>
          </mxGeometry>
        </mxCell>
        <mxCell id="VO87fzGyyJs7BhhGHUsH-28" value="&lt;font color=&quot;#4277bb&quot; style=&quot;font-size: 15px;&quot;&gt;限流&lt;/font&gt;" style="edgeLabel;html=1;align=center;verticalAlign=middle;resizable=0;points=[];" parent="VO87fzGyyJs7BhhGHUsH-27" vertex="1" connectable="0">
          <mxGeometry x="0.3093" y="-1" relative="1" as="geometry">
            <mxPoint y="-69" as="offset" />
          </mxGeometry>
        </mxCell>
        <mxCell id="deoy2cFSpnk__pdyX7yM-96" value="&lt;div style=&quot;font-size: 15px;&quot;&gt;NGINX&lt;br style=&quot;font-size: 15px;&quot;&gt;&lt;/div&gt;" style="shape=image;verticalLabelPosition=bottom;labelBackgroundColor=default;verticalAlign=top;aspect=fixed;imageAspect=0;image=data:image/png,iVBORw0KGgoAAAANSUhEUgAAAKAAAAC6CAMAAAAeXLbiAAAAkFBMVEUAljn///8AlDQ6plsAigzO59YAkSmRwJQAkzEAki0Ajh4AkCX7/vz4/PnW6twAjRnI49Cs1bem0LDo8+y017zu7u7e7+SDvIsclz2/3MUdm0RttHwAhQBMpV2OxJmRxp80nUtisXVKqmZIolVdqmjb29vDw8OmpqZZsHF5u4iKuYq5ubnOzs6azamvr6+cnJwG497/AAAHUElEQVR4nN2d22KrKBSGgRg2eExiNEcTc2y7s5t5/7cbSaeTqKhgaFgzf29yo34V1gGEBcLAhYzezU+Hw9Q3ekuTgMH2eMjzw3EbGLypOcBg6lFGCjHqTc0hGgNc7CP0r6L3han7GgJMZ4yjB3E2S83c2Qigv52X8G6I860RazEAGCyWbhVPyF0uDHTF5wFHK8pkfAgxuhpZBww29dZ9bOfNsy/xOcBgEnnNeEJeNHkO8SnAxbvTjifkPOdyngBMd22t+9jOu9gCYLzxlPBuiN62N2JPwGAqdy1NcvO+0a8f4GjnNbiWJvV2OX0A4xVXbt27OF/1eYn6gPEnpfp4QpRM9LuiLqA/zVzSjw8h4h61XY4mYLpjPVr3Lk5Wmi9RCzCerZ/CuyGuN1qIGoDBJO+Ia2pyBzrRTx1wdOSarqVJjB/VXY4qYLpzDeHdEN2dasKtBhhP+rqWJlGq6HKUACcZ7e1amkS8bGIIMNyb6nxlMboPDQCms+hp19KI6HaP/ToAC9eilbXoys27XE474GjAfqR172Js0O5y2gDDd8e4bdRFnF1bV2wGjDdzw66lSXTeEv0aAccH7wWv70uFyxnrAfph3j+p6oXoLkP5TIkUMJyZjGtqKlyOtCtKAIOtmaxFV14um/msAfqLg/m4piZCD4taO1cA/XD3CtfSiFh3OWXAdIZe5FqaVHM5JcDxnFt8fV8ifD6WA/qLPOq+/hWK8pFfBwx/MGvRFY/uLucbcJNb7nxl0XzzCBhM2evimpqIx76mmwRguIuA4QmR6OZyCsDQTuDolpeHAjA9gDGOqvghxcifAX1/Qt7MRzED2P++RViMpkC8s1zRFK3A9kAhvkJ73clm/kyfIJrBnu3RQOMK4q69/H2A1k6vAQFxHLTPI0ejzchAA5CQfyf20s9M7SNO6fLsKx0drubKraYDSPPxY0Y++tBLvMnynkWNMlXXpgHI80quG4yITn7hDR8T40zxUnVAUuUrFB/VCaPy9H6YKz5WHVA2sg5Wqk1FV5VLJ2rdUBmQHKSTUIFyU1VniAK1V6gMSD9kfEVnUjNIdqxNvqgFCGXAqOkL0XCpcj2f1S5UC7HKgM5QAqf+IPqr/p8pfKw3Aoi3Ck+yCuh/dBuKVUAcv3f2d7uAOEZd97AMiMOuQattQDztyBGtA/qb9m5oHRDjXWtUBgCIB23OBgJg6/gfAiBetKQNIADxtPmzIwxAvGkkBALYnGADASwGKQ2GAgUQp0u5pYABxCP5YNkKoHxZyVjaDa0A/s6kA71PWUSxAvjL2ci+8PoribOxA0i59DN5nNdN2RJgw2A0zWumbAuQeNJ1OaPaLW0BIp5JTXm6hgKIqHxl76bibOwBIrc+qYFFVC4bikVAFEkX2cVZyVBsAhIiNeW4NBK1CYhYLo3Tw/nDja0CIiqPeZOHbmgXEHk7GSD+uJuyZUDkyedf72Nl24CISU35PoNtHZAw6TLK8DsqWwdExJXGvBEhQAARk0flcQQFEDXst9lEUACR1xCVKRRAtJYn2GKsDAOw/r3rppQzKIAslyfYLgECiPhSnmBzKIDIk5vydg0FENGtDNDPfkMBRJ7clOux2hYgoYr7qWwBIrZU205lDRDx+td1WIBNpgwHELkbCRAkQOROgQMi1r1L1zLgodOU7QIiOgAO2DRWhgOIqHQGGxAgYe2mbB0QEa91a6l9QERQW8wDAIj4voUQAmDjoj4wgMiRjpV/BLCehqoAoqjRlA0DSh40U1lCSeZN33EXZhc48uoiWRwf1RaHzhucjcKiPh1AkleT0Pr3LrloLjVl04ts63OoK9U11J60/MjE+DrqQTmBUutCN9Gsnnuprc3VWipffsxQZ58R5dUaa+FScauCzmYDL7u7mslc9aqvx3ilgkfBWJVPb7sGm69uPsNfZNp7Xvg8G//TAsHkoH65FmDxGMdZ7vm61w5k4q6dfP+e07XOZpkCUHPLkO6en5IY160awvbwN12B37aWwt74l8LfOgl+8yn87bvwN0DD30IuBHsT/i3BAF7GoMgBRrALQQjBLqUhBKAYCaqU4oJXzqUya/dfK4gjBLykkBDwokwYflkrofELuyLxDpqFwYSgl1bD4IvTCQEv74etFkhMEhXAIvp9uBZKTAaX6+Vy/aMCaKVIZ/LXSVCer8plTs0n3G1lTpO3IDmdTgn+c1YtFNu7BnWTKG8pFHs+4fP1dH5L8CWBWGo3uST4XPS/og+e/kAsVpxcipd4Tk7XpPgJsdxzci4Ar8Wf+AmxYHZyDoo3WJhKotXEN6U78oKS48JIij54OWkYybdeUrQ9uSYijiTiPcIse5+8iSCSXC4B1IMDgvPb29tVhJMXHr2guD20ov/p4RUY/PEfQsoHqCArB6gIqR5B88yBTc8e4uN2RD/XtXmIDwZ/DJIQ8IOkMPyjuDD4w8yEgB8HJwT8QD18O5KQfx1JyEEeSVgo+DzmhY6fMA91FArC4TA0iWca8Af0N9s9lVwquEnNAAAAAElFTkSuQmCC;fontColor=#4277BB;html=1;fontSize=15;shadow=0;fontStyle=0" parent="2" vertex="1">
          <mxGeometry x="162.69" y="391" width="94.62" height="110" as="geometry" />
        </mxCell>
        <mxCell id="deoy2cFSpnk__pdyX7yM-106" value="用户" style="image;aspect=fixed;perimeter=ellipsePerimeter;html=1;align=center;shadow=0;dashed=0;fontColor=#4277BB;labelBackgroundColor=default;fontSize=12;spacingTop=3;image=img/lib/ibm/management/provider_cloud_portal_service.svg;" parent="2" vertex="1">
          <mxGeometry x="55" y="416" width="60" height="60" as="geometry" />
        </mxCell>
        <mxCell id="VO87fzGyyJs7BhhGHUsH-77" style="edgeStyle=orthogonalEdgeStyle;rounded=0;orthogonalLoop=1;jettySize=auto;html=1;entryX=1;entryY=0.5;entryDx=0;entryDy=0;shadow=0;strokeColor=#6c8ebf;strokeWidth=3;align=center;verticalAlign=middle;fontFamily=Helvetica;fontSize=12;fontColor=default;fontStyle=1;labelBackgroundColor=default;startSize=0;endArrow=classic;fillColor=#dae8fc;" parent="2" source="deoy2cFSpnk__pdyX7yM-125" target="VO87fzGyyJs7BhhGHUsH-55" edge="1">
          <mxGeometry relative="1" as="geometry">
            <Array as="points">
              <mxPoint x="545" y="235" />
            </Array>
          </mxGeometry>
        </mxCell>
        <mxCell id="deoy2cFSpnk__pdyX7yM-125" value="" style="swimlane;shadow=0;strokeColor=#6c8ebf;fillColor=#dae8fc;align=center;startSize=0;collapsible=0;strokeWidth=3;" parent="2" vertex="1">
          <mxGeometry x="400" y="361.5" width="375" height="168.5" as="geometry" />
        </mxCell>
        <mxCell id="deoy2cFSpnk__pdyX7yM-134" value="Gateway" style="text;html=1;align=center;verticalAlign=middle;whiteSpace=wrap;rounded=0;fillColor=#dae8fc;strokeColor=#6c8ebf;perimeterSpacing=0;fontSize=15;fontColor=#4277BB;" parent="deoy2cFSpnk__pdyX7yM-125" vertex="1">
          <mxGeometry x="24" y="17.5" width="100" height="30" as="geometry" />
        </mxCell>
        <mxCell id="deoy2cFSpnk__pdyX7yM-137" value="Gateway" style="text;html=1;align=center;verticalAlign=middle;whiteSpace=wrap;rounded=0;fillColor=#dae8fc;strokeColor=#6c8ebf;perimeterSpacing=0;fontSize=15;fontColor=#4277BB;" parent="deoy2cFSpnk__pdyX7yM-125" vertex="1">
          <mxGeometry x="257" y="17.5" width="100" height="30" as="geometry" />
        </mxCell>
        <mxCell id="deoy2cFSpnk__pdyX7yM-136" value="Gateway" style="text;html=1;align=center;verticalAlign=middle;whiteSpace=wrap;rounded=0;fillColor=#dae8fc;strokeColor=#6c8ebf;perimeterSpacing=0;fontSize=15;fontColor=#4277BB;" parent="deoy2cFSpnk__pdyX7yM-125" vertex="1">
          <mxGeometry x="140" y="17.5" width="100" height="30" as="geometry" />
        </mxCell>
        <mxCell id="VO87fzGyyJs7BhhGHUsH-161" value="&lt;div style=&quot;&quot;&gt;&lt;font style=&quot;font-size: 15px;&quot; color=&quot;#4277bb&quot;&gt;负载均衡:&amp;nbsp;&lt;/font&gt;&lt;span style=&quot;font-size: 15px; color: rgb(66, 119, 187);&quot;&gt;Loadbalancer +&amp;nbsp;&lt;/span&gt;&lt;span style=&quot;background-color: initial; font-size: 15px;&quot;&gt;&lt;font color=&quot;#4277bb&quot;&gt;Openfeign&lt;/font&gt;&lt;/span&gt;&lt;/div&gt;" style="text;html=1;align=left;verticalAlign=middle;resizable=0;points=[];autosize=1;strokeColor=none;fillColor=none;shadow=0;" parent="deoy2cFSpnk__pdyX7yM-125" vertex="1">
          <mxGeometry x="24" y="68.5" width="270" height="30" as="geometry" />
        </mxCell>
        <mxCell id="VO87fzGyyJs7BhhGHUsH-163" value="&lt;div style=&quot;&quot;&gt;&lt;font style=&quot;background-color: initial; font-size: 15px;&quot; color=&quot;#4277bb&quot;&gt;熔断降级:&amp;nbsp;&lt;/font&gt;&lt;font style=&quot;background-color: initial; font-size: 11px;&quot; color=&quot;#4277bb&quot;&gt;&lt;span style=&quot;font-size: 15px;&quot;&gt;Sentinel&lt;/span&gt;&lt;/font&gt;&lt;/div&gt;" style="text;html=1;align=left;verticalAlign=middle;resizable=0;points=[];autosize=1;strokeColor=none;fillColor=none;" parent="deoy2cFSpnk__pdyX7yM-125" vertex="1">
          <mxGeometry x="24" y="108.5" width="150" height="30" as="geometry" />
        </mxCell>
        <mxCell id="VO87fzGyyJs7BhhGHUsH-164" value="&lt;span style=&quot;color: rgb(66, 119, 187); font-size: 15px;&quot;&gt;接口限流: Ratelimit&lt;/span&gt;" style="text;html=1;align=left;verticalAlign=middle;resizable=0;points=[];autosize=1;strokeColor=none;fillColor=none;" parent="deoy2cFSpnk__pdyX7yM-125" vertex="1">
          <mxGeometry x="177.5" y="108.5" width="150" height="30" as="geometry" />
        </mxCell>
        <mxCell id="VO87fzGyyJs7BhhGHUsH-37" style="edgeStyle=orthogonalEdgeStyle;rounded=0;orthogonalLoop=1;jettySize=auto;html=1;shadow=0;strokeColor=none;strokeWidth=3;align=center;verticalAlign=middle;fontFamily=Helvetica;fontSize=12;fontColor=default;fontStyle=1;labelBackgroundColor=default;startSize=0;endArrow=classic;fillColor=#dae8fc;curved=0;" parent="2" source="deoy2cFSpnk__pdyX7yM-142" edge="1">
          <mxGeometry relative="1" as="geometry">
            <mxPoint x="570" y="620" as="targetPoint" />
            <Array as="points">
              <mxPoint x="570" y="610" />
            </Array>
          </mxGeometry>
        </mxCell>
        <mxCell id="VO87fzGyyJs7BhhGHUsH-76" style="edgeStyle=orthogonalEdgeStyle;rounded=0;orthogonalLoop=1;jettySize=auto;html=1;exitX=-0.003;exitY=0.371;exitDx=0;exitDy=0;entryX=1;entryY=0.5;entryDx=0;entryDy=0;shadow=0;strokeColor=#6c8ebf;strokeWidth=3;align=center;verticalAlign=middle;fontFamily=Helvetica;fontSize=12;fontColor=default;fontStyle=1;labelBackgroundColor=default;startSize=0;endArrow=classic;fillColor=#dae8fc;exitPerimeter=0;" parent="2" source="deoy2cFSpnk__pdyX7yM-142" target="VO87fzGyyJs7BhhGHUsH-55" edge="1">
          <mxGeometry relative="1" as="geometry">
            <Array as="points">
              <mxPoint x="545" y="321" />
              <mxPoint x="545" y="235" />
            </Array>
          </mxGeometry>
        </mxCell>
        <mxCell id="VO87fzGyyJs7BhhGHUsH-78" value="&lt;font style=&quot;font-size: 15px;&quot;&gt;服务发现、&lt;/font&gt;&lt;span style=&quot;font-size: 15px;&quot;&gt;注册&lt;/span&gt;&lt;div&gt;&lt;span style=&quot;font-size: 15px;&quot;&gt;动态配置&lt;/span&gt;&lt;/div&gt;" style="edgeLabel;html=1;align=center;verticalAlign=middle;resizable=0;points=[];fontColor=#4277BB;" parent="VO87fzGyyJs7BhhGHUsH-76" vertex="1" connectable="0">
          <mxGeometry x="0.6925" y="2" relative="1" as="geometry">
            <mxPoint x="16" y="42" as="offset" />
          </mxGeometry>
        </mxCell>
        <mxCell id="VO87fzGyyJs7BhhGHUsH-82" style="edgeStyle=orthogonalEdgeStyle;rounded=0;orthogonalLoop=1;jettySize=auto;html=1;entryX=0.014;entryY=0.601;entryDx=0;entryDy=0;shadow=0;strokeColor=#6c8ebf;strokeWidth=3;align=center;verticalAlign=middle;fontFamily=Helvetica;fontSize=12;fontColor=default;fontStyle=1;labelBackgroundColor=default;startSize=0;endArrow=classic;fillColor=#dae8fc;entryPerimeter=0;" parent="2" source="deoy2cFSpnk__pdyX7yM-142" target="VO87fzGyyJs7BhhGHUsH-79" edge="1">
          <mxGeometry relative="1" as="geometry">
            <Array as="points">
              <mxPoint x="1342" y="135" />
            </Array>
          </mxGeometry>
        </mxCell>
        <mxCell id="VO87fzGyyJs7BhhGHUsH-83" value="&lt;font color=&quot;#4277bb&quot; style=&quot;font-size: 15px;&quot;&gt;服务追踪&lt;/font&gt;" style="edgeLabel;html=1;align=center;verticalAlign=middle;resizable=0;points=[];" parent="VO87fzGyyJs7BhhGHUsH-82" vertex="1" connectable="0">
          <mxGeometry x="-0.1165" y="-2" relative="1" as="geometry">
            <mxPoint x="-14" y="-3" as="offset" />
          </mxGeometry>
        </mxCell>
        <mxCell id="VO87fzGyyJs7BhhGHUsH-99" style="edgeStyle=orthogonalEdgeStyle;rounded=0;orthogonalLoop=1;jettySize=auto;html=1;entryX=0;entryY=0.5;entryDx=0;entryDy=0;shadow=0;strokeColor=#6c8ebf;strokeWidth=3;align=center;verticalAlign=middle;fontFamily=Helvetica;fontSize=12;fontColor=default;fontStyle=1;labelBackgroundColor=default;startSize=0;endArrow=classic;fillColor=#dae8fc;" parent="2" target="VO87fzGyyJs7BhhGHUsH-94" edge="1">
          <mxGeometry relative="1" as="geometry">
            <mxPoint x="1240" y="507.0588235294117" as="sourcePoint" />
            <Array as="points">
              <mxPoint x="1260" y="507" />
              <mxPoint x="1260" y="507" />
            </Array>
          </mxGeometry>
        </mxCell>
        <mxCell id="VO87fzGyyJs7BhhGHUsH-100" value="&lt;font color=&quot;#4277bb&quot; style=&quot;font-size: 15px;&quot;&gt;数据库&lt;/font&gt;" style="edgeLabel;html=1;align=center;verticalAlign=middle;resizable=0;points=[];" parent="VO87fzGyyJs7BhhGHUsH-99" vertex="1" connectable="0">
          <mxGeometry x="-0.0127" y="1" relative="1" as="geometry">
            <mxPoint x="-1" as="offset" />
          </mxGeometry>
        </mxCell>
        <mxCell id="VO87fzGyyJs7BhhGHUsH-107" style="edgeStyle=orthogonalEdgeStyle;rounded=0;orthogonalLoop=1;jettySize=auto;html=1;entryX=0;entryY=0.5;entryDx=0;entryDy=0;exitX=1;exitY=1;exitDx=0;exitDy=0;shadow=0;strokeColor=#6c8ebf;strokeWidth=3;align=center;verticalAlign=middle;fontFamily=Helvetica;fontSize=12;fontColor=default;fontStyle=1;labelBackgroundColor=default;startSize=0;endArrow=classic;fillColor=#dae8fc;" parent="2" source="deoy2cFSpnk__pdyX7yM-142" target="VO87fzGyyJs7BhhGHUsH-103" edge="1">
          <mxGeometry relative="1" as="geometry">
            <Array as="points">
              <mxPoint x="1240" y="810" />
            </Array>
          </mxGeometry>
        </mxCell>
        <mxCell id="VO87fzGyyJs7BhhGHUsH-108" value="&lt;font color=&quot;#4277bb&quot; style=&quot;font-size: 15px;&quot;&gt;消息队列&lt;/font&gt;" style="edgeLabel;html=1;align=center;verticalAlign=middle;resizable=0;points=[];" parent="VO87fzGyyJs7BhhGHUsH-107" vertex="1" connectable="0">
          <mxGeometry x="-0.0133" y="-1" relative="1" as="geometry">
            <mxPoint x="11" y="-1" as="offset" />
          </mxGeometry>
        </mxCell>
        <mxCell id="VO87fzGyyJs7BhhGHUsH-112" style="edgeStyle=orthogonalEdgeStyle;rounded=0;orthogonalLoop=1;jettySize=auto;html=1;shadow=0;strokeColor=#6c8ebf;strokeWidth=3;align=center;verticalAlign=middle;fontFamily=Helvetica;fontSize=12;fontColor=default;fontStyle=1;labelBackgroundColor=default;startSize=0;endArrow=classic;fillColor=#dae8fc;exitX=0;exitY=1;exitDx=0;exitDy=0;entryX=0;entryY=0.5;entryDx=0;entryDy=0;" parent="2" source="deoy2cFSpnk__pdyX7yM-142" target="VO87fzGyyJs7BhhGHUsH-110" edge="1">
          <mxGeometry relative="1" as="geometry">
            <Array as="points">
              <mxPoint x="810" y="870" />
            </Array>
          </mxGeometry>
        </mxCell>
        <mxCell id="VO87fzGyyJs7BhhGHUsH-114" value="&lt;font color=&quot;#4277bb&quot; style=&quot;font-size: 15px;&quot;&gt;日志&lt;/font&gt;" style="edgeLabel;html=1;align=center;verticalAlign=middle;resizable=0;points=[];" parent="VO87fzGyyJs7BhhGHUsH-112" vertex="1" connectable="0">
          <mxGeometry x="0.3419" y="-1" relative="1" as="geometry">
            <mxPoint x="1" y="-27" as="offset" />
          </mxGeometry>
        </mxCell>
        <mxCell id="deoy2cFSpnk__pdyX7yM-142" value="" style="swimlane;shadow=0;strokeColor=#6c8ebf;fillColor=#dae8fc;align=center;startSize=0;collapsible=0;strokeWidth=3;" parent="2" vertex="1">
          <mxGeometry x="810" y="50" width="430" height="730" as="geometry" />
        </mxCell>
        <mxCell id="deoy2cFSpnk__pdyX7yM-102" value="INFRASTRUCTURE SERVICES" style="text;html=1;align=left;verticalAlign=top;fontColor=#4277BB;shadow=0;dashed=0;strokeColor=none;fillColor=none;labelBackgroundColor=none;fontStyle=0;fontSize=14;spacingLeft=5;" parent="deoy2cFSpnk__pdyX7yM-142" vertex="1">
          <mxGeometry x="23" y="25" width="231" height="24" as="geometry" />
        </mxCell>
        <mxCell id="VO87fzGyyJs7BhhGHUsH-138" style="edgeStyle=orthogonalEdgeStyle;rounded=0;orthogonalLoop=1;jettySize=auto;html=1;entryX=0.5;entryY=1;entryDx=0;entryDy=0;shadow=0;strokeColor=#6c8ebf;strokeWidth=3;align=center;verticalAlign=middle;fontFamily=Helvetica;fontSize=12;fontColor=default;fontStyle=1;labelBackgroundColor=default;startSize=0;endArrow=classic;fillColor=#dae8fc;" parent="deoy2cFSpnk__pdyX7yM-142" source="VO87fzGyyJs7BhhGHUsH-115" target="VO87fzGyyJs7BhhGHUsH-121" edge="1">
          <mxGeometry relative="1" as="geometry">
            <Array as="points">
              <mxPoint x="73" y="530" />
              <mxPoint x="73" y="530" />
            </Array>
          </mxGeometry>
        </mxCell>
        <mxCell id="VO87fzGyyJs7BhhGHUsH-142" value="&lt;font color=&quot;#4277bb&quot;&gt;&lt;span style=&quot;font-size: 15px;&quot;&gt;鉴权&lt;/span&gt;&lt;/font&gt;&lt;div&gt;&lt;font color=&quot;#4277bb&quot;&gt;&lt;span style=&quot;font-size: 15px;&quot;&gt;SSO&lt;/span&gt;&lt;/font&gt;&lt;/div&gt;" style="edgeLabel;html=1;align=center;verticalAlign=middle;resizable=0;points=[];" parent="VO87fzGyyJs7BhhGHUsH-138" vertex="1" connectable="0">
          <mxGeometry x="-0.0627" y="-2" relative="1" as="geometry">
            <mxPoint x="-2" y="3" as="offset" />
          </mxGeometry>
        </mxCell>
        <mxCell id="VO87fzGyyJs7BhhGHUsH-144" style="edgeStyle=orthogonalEdgeStyle;rounded=0;orthogonalLoop=1;jettySize=auto;html=1;exitX=0.5;exitY=0;exitDx=0;exitDy=0;entryX=0.5;entryY=1;entryDx=0;entryDy=0;shadow=0;strokeColor=#6c8ebf;strokeWidth=3;align=center;verticalAlign=middle;fontFamily=Helvetica;fontSize=12;fontColor=default;fontStyle=1;labelBackgroundColor=default;startSize=0;endArrow=classic;fillColor=#dae8fc;" parent="deoy2cFSpnk__pdyX7yM-142" source="VO87fzGyyJs7BhhGHUsH-115" target="VO87fzGyyJs7BhhGHUsH-143" edge="1">
          <mxGeometry relative="1" as="geometry">
            <Array as="points">
              <mxPoint x="204" y="560" />
            </Array>
          </mxGeometry>
        </mxCell>
        <mxCell id="VO87fzGyyJs7BhhGHUsH-146" value="&lt;font color=&quot;#4277bb&quot; style=&quot;font-size: 15px;&quot;&gt;任务调度&lt;/font&gt;" style="edgeLabel;html=1;align=center;verticalAlign=middle;resizable=0;points=[];" parent="VO87fzGyyJs7BhhGHUsH-144" vertex="1" connectable="0">
          <mxGeometry x="0.0652" y="2" relative="1" as="geometry">
            <mxPoint as="offset" />
          </mxGeometry>
        </mxCell>
        <mxCell id="VO87fzGyyJs7BhhGHUsH-149" style="edgeStyle=orthogonalEdgeStyle;rounded=0;orthogonalLoop=1;jettySize=auto;html=1;entryX=0.5;entryY=1;entryDx=0;entryDy=0;shadow=0;strokeColor=#6c8ebf;strokeWidth=3;align=center;verticalAlign=middle;fontFamily=Helvetica;fontSize=12;fontColor=default;fontStyle=1;labelBackgroundColor=default;startSize=0;endArrow=classic;fillColor=#dae8fc;" parent="deoy2cFSpnk__pdyX7yM-142" source="VO87fzGyyJs7BhhGHUsH-115" target="VO87fzGyyJs7BhhGHUsH-147" edge="1">
          <mxGeometry relative="1" as="geometry">
            <Array as="points">
              <mxPoint x="330" y="530" />
              <mxPoint x="330" y="530" />
            </Array>
          </mxGeometry>
        </mxCell>
        <mxCell id="VO87fzGyyJs7BhhGHUsH-150" value="&lt;span style=&quot;color: rgb(66, 119, 187); font-size: 15px;&quot;&gt;队列消费&lt;/span&gt;" style="edgeLabel;html=1;align=center;verticalAlign=middle;resizable=0;points=[];" parent="VO87fzGyyJs7BhhGHUsH-149" vertex="1" connectable="0">
          <mxGeometry x="0.0144" y="-1" relative="1" as="geometry">
            <mxPoint x="-1" y="2" as="offset" />
          </mxGeometry>
        </mxCell>
        <mxCell id="VO87fzGyyJs7BhhGHUsH-115" value="" style="swimlane;shadow=0;strokeColor=#6c8ebf;fillColor=#dae8fc;align=center;startSize=0;collapsible=0;strokeWidth=3;" parent="deoy2cFSpnk__pdyX7yM-142" vertex="1">
          <mxGeometry x="23" y="560" width="387" height="130" as="geometry" />
        </mxCell>
        <mxCell id="VO87fzGyyJs7BhhGHUsH-116" value="BUSINESS SERVICES" style="text;html=1;align=left;verticalAlign=top;fontColor=#4277BB;shadow=0;dashed=0;strokeColor=none;fillColor=none;labelBackgroundColor=none;fontStyle=0;fontSize=14;spacingLeft=5;" parent="VO87fzGyyJs7BhhGHUsH-115" vertex="1">
          <mxGeometry x="17" y="19" width="164" height="24" as="geometry" />
        </mxCell>
        <mxCell id="VO87fzGyyJs7BhhGHUsH-118" value="Service2" style="text;html=1;align=center;verticalAlign=middle;whiteSpace=wrap;rounded=0;fillColor=#dae8fc;strokeColor=#6c8ebf;perimeterSpacing=0;fontSize=15;fontColor=#4277BB;" parent="VO87fzGyyJs7BhhGHUsH-115" vertex="1">
          <mxGeometry x="143.5" y="70" width="100" height="30" as="geometry" />
        </mxCell>
        <mxCell id="VO87fzGyyJs7BhhGHUsH-119" value="Service1" style="text;html=1;align=center;verticalAlign=middle;whiteSpace=wrap;rounded=0;fillColor=#dae8fc;strokeColor=#6c8ebf;perimeterSpacing=0;fontSize=15;fontColor=#4277BB;" parent="VO87fzGyyJs7BhhGHUsH-115" vertex="1">
          <mxGeometry x="17" y="70" width="100" height="30" as="geometry" />
        </mxCell>
        <mxCell id="VO87fzGyyJs7BhhGHUsH-120" value="..." style="text;html=1;align=center;verticalAlign=middle;whiteSpace=wrap;rounded=0;fillColor=#dae8fc;strokeColor=#6c8ebf;perimeterSpacing=0;fontSize=15;fontColor=#4277BB;" parent="VO87fzGyyJs7BhhGHUsH-115" vertex="1">
          <mxGeometry x="267" y="70" width="100" height="30" as="geometry" />
        </mxCell>
        <mxCell id="VO87fzGyyJs7BhhGHUsH-131" style="edgeStyle=orthogonalEdgeStyle;rounded=0;orthogonalLoop=1;jettySize=auto;html=1;entryX=0;entryY=0.5;entryDx=0;entryDy=0;shadow=0;strokeColor=#6c8ebf;strokeWidth=3;align=center;verticalAlign=middle;fontFamily=Helvetica;fontSize=12;fontColor=default;fontStyle=1;labelBackgroundColor=default;startSize=0;endArrow=classic;fillColor=#dae8fc;" parent="deoy2cFSpnk__pdyX7yM-142" source="VO87fzGyyJs7BhhGHUsH-117" target="VO87fzGyyJs7BhhGHUsH-124" edge="1">
          <mxGeometry relative="1" as="geometry" />
        </mxCell>
        <mxCell id="VO87fzGyyJs7BhhGHUsH-132" style="edgeStyle=orthogonalEdgeStyle;rounded=0;orthogonalLoop=1;jettySize=auto;html=1;shadow=0;strokeColor=#6c8ebf;strokeWidth=3;align=center;verticalAlign=middle;fontFamily=Helvetica;fontSize=12;fontColor=default;fontStyle=1;labelBackgroundColor=default;startSize=0;endArrow=classic;fillColor=#dae8fc;" parent="deoy2cFSpnk__pdyX7yM-142" source="VO87fzGyyJs7BhhGHUsH-117" target="VO87fzGyyJs7BhhGHUsH-125" edge="1">
          <mxGeometry relative="1" as="geometry" />
        </mxCell>
        <mxCell id="VO87fzGyyJs7BhhGHUsH-133" style="edgeStyle=orthogonalEdgeStyle;rounded=0;orthogonalLoop=1;jettySize=auto;html=1;entryX=0;entryY=0.5;entryDx=0;entryDy=0;shadow=0;strokeColor=#6c8ebf;strokeWidth=3;align=center;verticalAlign=middle;fontFamily=Helvetica;fontSize=12;fontColor=default;fontStyle=1;labelBackgroundColor=default;startSize=0;endArrow=classic;fillColor=#dae8fc;" parent="deoy2cFSpnk__pdyX7yM-142" source="VO87fzGyyJs7BhhGHUsH-117" target="VO87fzGyyJs7BhhGHUsH-127" edge="1">
          <mxGeometry relative="1" as="geometry" />
        </mxCell>
        <mxCell id="VO87fzGyyJs7BhhGHUsH-134" style="edgeStyle=orthogonalEdgeStyle;rounded=0;orthogonalLoop=1;jettySize=auto;html=1;entryX=0;entryY=0.5;entryDx=0;entryDy=0;shadow=0;strokeColor=#6c8ebf;strokeWidth=3;align=center;verticalAlign=middle;fontFamily=Helvetica;fontSize=12;fontColor=default;fontStyle=1;labelBackgroundColor=default;startSize=0;endArrow=classic;fillColor=#dae8fc;" parent="deoy2cFSpnk__pdyX7yM-142" source="VO87fzGyyJs7BhhGHUsH-117" target="VO87fzGyyJs7BhhGHUsH-128" edge="1">
          <mxGeometry relative="1" as="geometry" />
        </mxCell>
        <mxCell id="VO87fzGyyJs7BhhGHUsH-135" style="edgeStyle=orthogonalEdgeStyle;rounded=0;orthogonalLoop=1;jettySize=auto;html=1;entryX=0;entryY=0.5;entryDx=0;entryDy=0;shadow=0;strokeColor=#6c8ebf;strokeWidth=3;align=center;verticalAlign=middle;fontFamily=Helvetica;fontSize=12;fontColor=default;fontStyle=1;labelBackgroundColor=default;startSize=0;endArrow=classic;fillColor=#dae8fc;" parent="deoy2cFSpnk__pdyX7yM-142" source="VO87fzGyyJs7BhhGHUsH-117" target="VO87fzGyyJs7BhhGHUsH-129" edge="1">
          <mxGeometry relative="1" as="geometry" />
        </mxCell>
        <mxCell id="VO87fzGyyJs7BhhGHUsH-136" style="edgeStyle=orthogonalEdgeStyle;rounded=0;orthogonalLoop=1;jettySize=auto;html=1;entryX=0;entryY=0.5;entryDx=0;entryDy=0;shadow=0;strokeColor=#6c8ebf;strokeWidth=3;align=center;verticalAlign=middle;fontFamily=Helvetica;fontSize=12;fontColor=default;fontStyle=1;labelBackgroundColor=default;startSize=0;endArrow=classic;fillColor=#dae8fc;" parent="deoy2cFSpnk__pdyX7yM-142" source="VO87fzGyyJs7BhhGHUsH-117" target="VO87fzGyyJs7BhhGHUsH-130" edge="1">
          <mxGeometry relative="1" as="geometry" />
        </mxCell>
        <mxCell id="VO87fzGyyJs7BhhGHUsH-117" value="Common" style="text;html=1;align=center;verticalAlign=middle;whiteSpace=wrap;rounded=0;fillColor=#dae8fc;strokeColor=#6c8ebf;perimeterSpacing=0;fontSize=15;fontColor=#4277BB;" parent="deoy2cFSpnk__pdyX7yM-142" vertex="1">
          <mxGeometry x="23" y="110" width="100" height="30" as="geometry" />
        </mxCell>
        <mxCell id="VO87fzGyyJs7BhhGHUsH-121" value="Auth" style="text;html=1;align=center;verticalAlign=middle;whiteSpace=wrap;rounded=0;fillColor=#dae8fc;strokeColor=#6c8ebf;perimeterSpacing=0;fontSize=15;fontColor=#4277BB;" parent="deoy2cFSpnk__pdyX7yM-142" vertex="1">
          <mxGeometry x="23" y="447" width="100" height="30" as="geometry" />
        </mxCell>
        <mxCell id="VO87fzGyyJs7BhhGHUsH-124" value="Common-Core" style="text;html=1;align=center;verticalAlign=middle;whiteSpace=wrap;rounded=0;fillColor=#dae8fc;strokeColor=#6c8ebf;perimeterSpacing=0;fontSize=15;fontColor=#4277BB;" parent="deoy2cFSpnk__pdyX7yM-142" vertex="1">
          <mxGeometry x="230" y="73" width="140" height="30" as="geometry" />
        </mxCell>
        <mxCell id="VO87fzGyyJs7BhhGHUsH-125" value="Common-Datasource" style="text;html=1;align=center;verticalAlign=middle;whiteSpace=wrap;rounded=0;fillColor=#dae8fc;strokeColor=#6c8ebf;perimeterSpacing=0;fontSize=15;fontColor=#4277BB;" parent="deoy2cFSpnk__pdyX7yM-142" vertex="1">
          <mxGeometry x="230" y="129" width="170" height="30" as="geometry" />
        </mxCell>
        <mxCell id="VO87fzGyyJs7BhhGHUsH-145" style="edgeStyle=orthogonalEdgeStyle;rounded=0;orthogonalLoop=1;jettySize=auto;html=1;entryX=0.5;entryY=1;entryDx=0;entryDy=0;shadow=0;strokeColor=#6c8ebf;strokeWidth=3;align=center;verticalAlign=middle;fontFamily=Helvetica;fontSize=12;fontColor=default;fontStyle=1;labelBackgroundColor=default;startSize=0;endArrow=classic;fillColor=#dae8fc;" parent="deoy2cFSpnk__pdyX7yM-142" source="VO87fzGyyJs7BhhGHUsH-143" target="VO87fzGyyJs7BhhGHUsH-117" edge="1">
          <mxGeometry relative="1" as="geometry">
            <Array as="points">
              <mxPoint x="204" y="410" />
              <mxPoint x="73" y="410" />
            </Array>
          </mxGeometry>
        </mxCell>
        <mxCell id="VO87fzGyyJs7BhhGHUsH-127" value="Common-Redis" style="text;html=1;align=center;verticalAlign=middle;whiteSpace=wrap;rounded=0;fillColor=#dae8fc;strokeColor=#6c8ebf;perimeterSpacing=0;fontSize=15;fontColor=#4277BB;" parent="deoy2cFSpnk__pdyX7yM-142" vertex="1">
          <mxGeometry x="230" y="187" width="140" height="30" as="geometry" />
        </mxCell>
        <mxCell id="VO87fzGyyJs7BhhGHUsH-128" value="Common-Security" style="text;html=1;align=center;verticalAlign=middle;whiteSpace=wrap;rounded=0;fillColor=#dae8fc;strokeColor=#6c8ebf;perimeterSpacing=0;fontSize=15;fontColor=#4277BB;" parent="deoy2cFSpnk__pdyX7yM-142" vertex="1">
          <mxGeometry x="230" y="242" width="140" height="30" as="geometry" />
        </mxCell>
        <mxCell id="VO87fzGyyJs7BhhGHUsH-129" value="Common-Amqp" style="text;html=1;align=center;verticalAlign=middle;whiteSpace=wrap;rounded=0;fillColor=#dae8fc;strokeColor=#6c8ebf;perimeterSpacing=0;fontSize=15;fontColor=#4277BB;" parent="deoy2cFSpnk__pdyX7yM-142" vertex="1">
          <mxGeometry x="230" y="298" width="140" height="30" as="geometry" />
        </mxCell>
        <mxCell id="VO87fzGyyJs7BhhGHUsH-130" value="Common-Scheduler" style="text;html=1;align=center;verticalAlign=middle;whiteSpace=wrap;rounded=0;fillColor=#dae8fc;strokeColor=#6c8ebf;perimeterSpacing=0;fontSize=15;fontColor=#4277BB;" parent="deoy2cFSpnk__pdyX7yM-142" vertex="1">
          <mxGeometry x="230" y="354" width="160" height="30" as="geometry" />
        </mxCell>
        <mxCell id="VO87fzGyyJs7BhhGHUsH-143" value="Scheduler" style="text;html=1;align=center;verticalAlign=middle;whiteSpace=wrap;rounded=0;fillColor=#dae8fc;strokeColor=#6c8ebf;perimeterSpacing=0;fontSize=15;fontColor=#4277BB;" parent="deoy2cFSpnk__pdyX7yM-142" vertex="1">
          <mxGeometry x="154" y="447" width="100" height="30" as="geometry" />
        </mxCell>
        <mxCell id="VO87fzGyyJs7BhhGHUsH-148" style="edgeStyle=orthogonalEdgeStyle;rounded=0;orthogonalLoop=1;jettySize=auto;html=1;entryX=0.5;entryY=1;entryDx=0;entryDy=0;shadow=0;strokeColor=#6c8ebf;strokeWidth=3;align=center;verticalAlign=middle;fontFamily=Helvetica;fontSize=12;fontColor=default;fontStyle=1;labelBackgroundColor=default;startSize=0;endArrow=classic;fillColor=#dae8fc;" parent="deoy2cFSpnk__pdyX7yM-142" source="VO87fzGyyJs7BhhGHUsH-147" target="VO87fzGyyJs7BhhGHUsH-117" edge="1">
          <mxGeometry relative="1" as="geometry">
            <Array as="points">
              <mxPoint x="330" y="410" />
              <mxPoint x="73" y="410" />
            </Array>
          </mxGeometry>
        </mxCell>
        <mxCell id="VO87fzGyyJs7BhhGHUsH-147" value="Amqp" style="text;html=1;align=center;verticalAlign=middle;whiteSpace=wrap;rounded=0;fillColor=#dae8fc;strokeColor=#6c8ebf;perimeterSpacing=0;fontSize=15;fontColor=#4277BB;" parent="deoy2cFSpnk__pdyX7yM-142" vertex="1">
          <mxGeometry x="280" y="447" width="100" height="30" as="geometry" />
        </mxCell>
        <mxCell id="VO87fzGyyJs7BhhGHUsH-139" style="edgeStyle=orthogonalEdgeStyle;rounded=0;orthogonalLoop=1;jettySize=auto;html=1;entryX=0.5;entryY=1;entryDx=0;entryDy=0;shadow=0;strokeColor=#6c8ebf;strokeWidth=3;align=center;verticalAlign=middle;fontFamily=Helvetica;fontSize=12;fontColor=default;fontStyle=1;labelBackgroundColor=default;startSize=0;endArrow=classic;fillColor=#dae8fc;" parent="deoy2cFSpnk__pdyX7yM-142" source="VO87fzGyyJs7BhhGHUsH-121" target="VO87fzGyyJs7BhhGHUsH-117" edge="1">
          <mxGeometry relative="1" as="geometry" />
        </mxCell>
        <mxCell id="VO87fzGyyJs7BhhGHUsH-141" value="&lt;font color=&quot;#4277bb&quot; style=&quot;font-size: 15px;&quot;&gt;依赖&lt;/font&gt;" style="edgeLabel;html=1;align=center;verticalAlign=middle;resizable=0;points=[];" parent="VO87fzGyyJs7BhhGHUsH-139" vertex="1" connectable="0">
          <mxGeometry x="-0.0911" y="1" relative="1" as="geometry">
            <mxPoint as="offset" />
          </mxGeometry>
        </mxCell>
        <mxCell id="VO87fzGyyJs7BhhGHUsH-47" style="edgeStyle=orthogonalEdgeStyle;rounded=0;orthogonalLoop=1;jettySize=auto;html=1;exitX=0.5;exitY=0;exitDx=0;exitDy=0;shadow=0;strokeColor=#6c8ebf;strokeWidth=3;align=center;verticalAlign=middle;fontFamily=Helvetica;fontSize=12;fontColor=default;fontStyle=1;labelBackgroundColor=default;startSize=0;endArrow=classic;fillColor=#dae8fc;" parent="2" source="VO87fzGyyJs7BhhGHUsH-30" edge="1">
          <mxGeometry relative="1" as="geometry">
            <mxPoint x="620" y="531" as="targetPoint" />
            <Array as="points">
              <mxPoint x="620" y="530" />
            </Array>
          </mxGeometry>
        </mxCell>
        <mxCell id="VO87fzGyyJs7BhhGHUsH-50" value="&lt;font color=&quot;#4277bb&quot; style=&quot;font-size: 15px;&quot;&gt;令牌限流&lt;/font&gt;" style="edgeLabel;html=1;align=center;verticalAlign=middle;resizable=0;points=[];" parent="VO87fzGyyJs7BhhGHUsH-47" vertex="1" connectable="0">
          <mxGeometry x="0.6036" y="-4" relative="1" as="geometry">
            <mxPoint x="-4" y="15" as="offset" />
          </mxGeometry>
        </mxCell>
        <mxCell id="VO87fzGyyJs7BhhGHUsH-20" value="OSS" style="shape=image;verticalLabelPosition=bottom;labelBackgroundColor=default;verticalAlign=top;aspect=fixed;imageAspect=0;image=data:image/jpeg,/9j/4AAQSkZJRgABAQAAAQABAAD/2wCEAAkGBwgHBgkIBwgKCgkLDRYPDQwMDRsUFRAWIB0iIiAdHx8kKDQsJCYxJx8fLT0tMTU3Ojo6Iys/RD84QzQ5OjcBCgoKDQwNGg8PGjclHyU3Nzc3Nzc3Nzc3Nzc3Nzc3Nzc3Nzc3Nzc3Nzc3Nzc3Nzc3Nzc3Nzc3Nzc3Nzc3Nzc3N//AABEIAL0AyAMBIgACEQEDEQH/xAAbAAEAAwEBAQEAAAAAAAAAAAAABQYHBAMCAf/EADsQAAICAQICBQoFAgYDAAAAAAABAgMEBREGMRIhQVFxEyIjUmGBobHB0RQyYnKR4fAHFTNCQ5IkNFP/xAAaAQEBAQEBAQEAAAAAAAAAAAAABgUEAwIB/8QAMBEAAgIBAgMFBwUBAQAAAAAAAAECAwQFERIhMRMiQaGxFTJRUmFxwSNCgdHw4RT/2gAMAwEAAhEDEQA/ANxAAAAAAAAAAAAAAAAAAAAAAAAAAAAAAAAAAAAAAAAAAAAAAAAAAAAAAAAAB5ZGRRjQ6eRdXVHvnJIh8ri3SMd7Runc+6qG/wAXsjzsurr9+SR6102We5FsnQVKzjrET9Hh3SX6pJfc/IcdYz/PhWr9s0zn9oYvzo6PZ2V8jLcCt08aaVY0prIq9soJr4Nkxh6pg5v/AKuVVY/VUvO/jme1eTTZ7kkzxsxrqvfi0dgAPY8AAAAAAAAAAAAAAAAAAAAAAARWv65j6PRvPz8ia9HUnz9r7kfE7I1xcpPZI+665WSUYLds7c7NxsCh3Zdsa4Lv5v2JdpS9Y4zyLnKrTIeRr5eUl1zfh2Iruo6hlalkO7Ltc5di7IruS7DlJvL1ayzu1cl5lNh6RXX3reb8v+npffdk2OzItnZN85TluzzAMhtt7s2EklsgAAfoCbTTT2a5NAAE3pfFGpYDUZWfiKvUte+3g+ZeNG17C1aKVMuhft10z5+7vMsPquc6pxnXJxnF7qUXs0aOLqd1L2l3kZmXpdN63iuGRswKnwxxUspww9Sko3vqrt5Kfsfc/mWwp6Miu+HHBkvkY9mPPgmgAD2PAAAAAAAAAAAAAAH42kt29kgDg1zVKtJwJ5Fmzm+quG/5pGW5mVdm5M8jJm52Te7bJHifVnqupSnF+gq3hUvZ3+8iCT1LMd9nDF91f7crtMwlj18cl3n5fQAAzTUAAAAAAAAAAAABoPB+vvOrWDly3ya4+ZN/8kV9UZ8emPfZjX13UycbK5KUWu868PKljWcS6eJyZuJHJq4X18DZAcWj6hDVNPqyoLZyW0o+rJc0dpYxkpRUl0ZFSi4ScZdUAAfR8gAAAAAAA8MrMxsSPSysiupfrklufjaS3Z+pNvZHuQXGWoPB0ecK5bW5D8nHv27X/HzPqzizRocspyf6a5fYp/Fur06tl0vFcnTXDZdJbPdvr+hm52bXCmShJN9Opp4GDbO+LnFqK580QQAJQrgAAAAAAAAAAAAAAAAAC1cA6g6c6zBnLzL10or9S/p8i/GPYORLEzKMiHOqal/DNgjJSipRe6a3TKfR7nOlwf7fySutUcFymv3eqP0AGuY4AAAPO+6rHplbfZGuuC3lKT2SPqcowhKc2lGK3bfYjM+J9cnq+X0a244lb9HDvfrP2/33nHmZkcaG75t9EdmFhyyp8K5JdWSWt8Y33uVOmJ01cvKv80vDuKrZOdk3OycpyfOUnu2fIJS/JtvlvNldj4tWPHatAAHgdAAAAAPumqd1sKqoOc5vaMVzbCTb2QbSW7OjS9Pv1PNhi4686XW5dkV2tlg4h4Ur07TfxWJbZY69vKqe3Wu9bFm4c0WGj4Si9pZNmztn7e5exEnkUwyKLKLVvCyLjJexlJj6VBUNWLvPyJjI1ebyE633V5mNg987Gnh5l2NZ+aqbi/b7TwJyUXFtMpoyUkmvEAA/D9AAAAAABrOg2+X0XCsfN0xT8UtjJjUuFXvw/hb+o/mza0RvtZL6GHrqXZRf1JYAFITIAABVeO9TeNhwwam1PI65vuguz3v5FBJri/JeTr2R6tW1cfdz+O5CkfqNztyJfBciz02hVY0fi+YABwneAAAAAAC/8G6D+CqWflx/8iyPo4v/AI4v6sjODNA/E2R1DMr3oi/RRl/vff4IvhQaVg7fr2L7f2TmrZ+/6Fb+/wDQABvGAUT/ABA0/wAnlU58F5tq6E/3Ll8PkVI1fiDA/wAy0m/HS3s26Vf7ly+3vMofU9mSurUdnfxrpL18Ss0fI7SjgfWPp4AAGWawAAAAAANW4crdWhYMXz8in/PX9TLKK5XXV1Q/NOSivFmxU1xpphVD8sIqK8EbuiQ705/wYGuz7sIfyfYAKEnAAADIdUm7NTy5y5yum3/2Zynfr1Lx9aza2tvTSa8G918GcBC3JqySfxZfUNOqLXTZAAHmegAAAO7RMWnN1XGx8mfQqnLznvt2b7e/l7zhB9QkoyTa3PmyLlBxT2bNmqrhVXGuuKjCK2jFckj6Mgrz82pJV5eRBL1bWiQ0vVNVv1DGx1qGS1ZbGL3sb6m+so69Zrk1HgZNWaLZFOXGjTwCD4q1q3RqceWPCuc7ZtNWJ8kuvk/ajVttjVBzn0RkVVStmoQ6snDMOLcD8BrVyitq7vSw9/NfzuS1fHd6/wBTArl+2xr6MheIdanrWRXY6I0xrj0YxT6T97MPUcvGyKNovmvob2m4eVj37yj3WufNEUADBKAAAAABJtpJbt8kgCw8EYDy9YjfJejxl03+7s+/uNHIjhfS/wDKtLhCxens8+32Pu9xLljp+P2FCi+r5si9RyO3vcl0XJAAHacIAABRP8QMDyeVTnwXm2roT/cuXw+RUjXdVwKtSwbcW7lNdUvVfYzKs/DuwMqzGyI9GcH/ACu9Evq2K67e1XR+pVaPlKyrsm+cfQ5wAZJsAAAAAAAsnAmC8jVnkyj6PHjvv+p9S+pXqKbMi6FNMHOyb2jFdrNT0DS46TpsMfqdj86yS7ZM09KxnbcpvpH1MrVspVUuC6y9CSM949y1fq0MeL3WPDZ/ufW/hsXrPy6sDDtyb3tCuO/j3IyTLyJ5eVbkWvz7JuT95pazeo1KpdX6GbotDla7X0XqeQAJopwAAAAAAW7grQnbZHUsuHo4f6MWvzP1vBHPwxwxPPlHKzoyhiLrjHk7fsvaaDGMYRUYpRilskl1JG7pmnttXWr7L8mBqmopJ01Pn4v8H6AChJwAAAAAAEVr2h4+sUbT2hkQXo7UuXsfeiVB8TrjZFxkt0z7rslXJSi9mjJNT0vL0u7yeXU4+rNdcZeDOI2S+irJqdV9cLK3zjJborefwVhXNyxLrMeT/wBr8+P3+JP5GjTT3pe6+BRY2tQa2uWz+KM/BabeB9Qi/RZGNNe1yT+R818EalJ+fdixX7pN/I4PZ2VvtwGh7Sxdt+NFYPfDxMjNvVOLVKyx9kVy8e4ueFwPjwalm5U7X6ta6K/ks2Fg4uBV5LEphVHt6K634vtO2jRrZPe17LzOLI1qqK2qW78iI4a4cr0mPl72rMyS23XKC7l9/wC3PgNJrZ8ihqqhVBQgtkTdts7puc3uzPOMddWoXLDxZb41UvOkn1WS+yK0ahn8M6VnNyljqqfrU+b8OXwIHJ4Flu3i5qa7FbD6r7E/m6fl2WOz3iiwdRxK61X7v++hTQWSfBeqxfVLGl4Tf1R8x4M1Z81QvGz+hwf+DJ+Rmh7QxfnRXQW3H4Fy5NfiMumC/QnL57EzhcHaXjNSuVmRJf8A0lsv4R716Vkz6rb7nhbq+LDo9/sUHCwcrPt8niUTtl29FdS8X2F20LhCnFlG/UXG65darX5I+PeWaiirHrVdFUK4LlGEUkehsYulVUvin3n5GLl6tbcuGHdXmF1LZAA1DKAAAAAAAAAAAAAAAAAAAAAAAAAAAAAAAAAAAAAAAAAAAAAAAAAAAAAAAAAAAAAAAAAAAAAAAAAAAAAAAAAAAAP/2Q==;fontColor=#4277BB;shadow=1;fontStyle=0;fontSize=15;" parent="2" vertex="1">
          <mxGeometry x="390" y="590" width="137.57" height="130" as="geometry" />
        </mxCell>
        <mxCell id="VO87fzGyyJs7BhhGHUsH-30" value="" style="swimlane;shadow=0;strokeColor=#6c8ebf;fillColor=#dae8fc;align=center;startSize=0;collapsible=0;strokeWidth=3;" parent="2" vertex="1">
          <mxGeometry x="470" y="790" width="300" height="110" as="geometry" />
        </mxCell>
        <mxCell id="VO87fzGyyJs7BhhGHUsH-29" value="" style="shape=image;verticalLabelPosition=bottom;labelBackgroundColor=default;verticalAlign=top;aspect=fixed;imageAspect=0;image=data:image/png,iVBORw0KGgoAAAANSUhEUgAAAOEAAADhCAMAAAAJbSJIAAABCFBMVEX///+hAANQUVPjAAfiAACeAAObAANLTE6fAADoAAblAAdNTlBISUulpaasAAT6+/uKiow/QEI2Nzrz8/N6fH7MAAVwAALWAAbeAAb99/e4U1SxAASnAAToAABqamzf3+C6AASFAAP57e3Ee3zW1tfHx8i9vb7o6OmWl5j82trNAAXBAAStra5tbm+Njo9ZWlz4ycrrKy/85uf5sbJnAAHvio3Kd3lgYWL2qKr1fYHvUVTsDxjza2/70dPuNzvyc3X5vsDnHyLqREj0mJrxiYrrLjR7AALsW171oKJaAADjdXbmSEnYmZutEhjpwsPdTFPeXF60MjXdFh/HUFG7PUHCX2HYkZTep6muKIhdAAALHUlEQVR4nO2bCXfSzBrH2ZJAMiwDVEAIYGVtgVIopVZrV63vvep9vW7f/5vcyUyWWVLfo9eaac/zP8ceSgaYX559qKkUCAQCgUAgEAgEAoFAIBAIBAKBQCAQCAQCgUAgEAgEAoFAIBAIBAKBQCAQCHSfWi1PTs52k97FvWn54tLNEbmn61bSe7kHrTYvCV7Wkwf56izpDf1mrV8HeFkf0i28ezyGXJ67bo7ZLuDzfrju38ukt/Y7tLo+9MlyFy+8R+Tf5YvAXS83q6Q3+H/q4jQ0XDZ3S7z1qmlfT1PXuchbTy+S3uSva3XDvDOk8ZySlgo+Jom33jxIQ7bWVzmRL3cahN2JkHU8xqsHVz/Ozl2J4vUJV+gvznPS5Zx7Pk1uuz+r1smlxJctbC6WU6GXubgSVxDkwwdiyOUrIfoiAK/QvyELdq8356eHL1/6i+xswQ699Vz7RoDWBh6Jtmm5iHOTSm3YJYpl2439Z+lGwEgWHF7rnHYurqLGLHuzPttttVq70/XmMKoYud2UHQIXsjulTvvZ0dHbfqEQReTVRdIg8Vpt3IjvXDTE7k3YztwuA++0G/10qVRqP3vy5MnRkcEZ0nU3+kXk9DaqDazwSddDxEP6oNDcaXdKpYDQg3zbb0aMtm6IS6H0bWJWvAv5vR97Ph5H+OTor7eN6D10i8Z/udl/IDwR8muTBKBIeHRkNoJYJB5c0m1Mfr5X4BEvlAVnUoG0C40+g2Rx+Kxvc3w7hqkdodnP2hFh7pXYoExf5NQS6YciyaVPzL0wzXh8HTOtH2HeMPabBY7x8NV6OV21Vqvl+sUhx8eKYc6Haex3OuTmcHzZnbSZTutImE4bZjvK+AFJxBO0AJe31+vpqwDZtpu8+Zp9w0indSX09tXZyfIBydE23ct/n79bMu9dqz5LLdo2GZ++hGRn6X5TZrRvzzfrKZf+d2Oi0i7sdUI+nQk9Zy1xzkpNeCt1AFcKYCG7T8MvUF47wmOD217aJFmHZyROyh+sXUuApHK0TeEN8vn3ybHEa1oSdpg2zX7DtgXG8IR0JfooqQ4lkS9tfPiYKE2sVk/NvLhLknUKIuPrNV36hgeU3dO7O/n/6NaUMi37kiXShtFvipDu9S4ZDzn3bLblF5mdPdt1b/RjnJ66Lilmkjm8rCM7awho2yR7yveEZSlSNnVDZLMFmWjlPRMX3BfKR1jqs/vyWtOIKk1Ot1z6txvYRU6L3sbbUvnw7oVibzO9E7a2tt3WzYZPo8mH5A7VWUlwRYwx4ScUUW+2yGtHaEYDOiFQ8j9zVnb4pFQ/wT392UI/wrwh7JJMf4oXGv29pt0k04TM19lp8h5Aq4eGhNJsYQdjkOCKpmEo7tnhsm0hnC20JGTmyHLOqmYdSSZfMYUspSsh3TOXOAtNpWMR3JMrJLZYafQllKs8LeuxhjRLe/adtyKvM2GaJs7oYILUBqWfk2JWdmdDx9mikxfnJ0LAWUjqdQy1Ooj8n3ScLb7mlSTJnWgQZw1LpFD9YiKVtAc3uvVsns7+G9Ou8ZmSlEjTE5duPfc0lNmCGD/nvkuaR1brjZuLb9f4rFNoNps2Vx1iZos2M29Ou1P9czfM+HHtWlaVHeOe0SlWYa+cNJKkz/xsoRpGnS3UWZJzX9vu61ctSmFWsdVzibR0ohE3W0R3gTTuhoazRd7cb9rhFhvqbGGGs4VnZukil11tFs0aEopFnHih0ncb7Z1Gls4WqnsWotcx79WRkA26UaZUTzTIXGGqs0XU43m2D4qHnoS+M/6o2kkyTM49hd5GW0Kp8Y45Db3TPaXWW19CqV8jeUXJOsGd2OPcU7K28SlpIlnPxRNv0+tNwu2T2UI2JElL3AKpTyCjxRfdTJhKHefz4qk+f7wmM5DZIjCyTXobiT+f1/FrCzJcfFYY01HjzTsrqX5Zzj0lH84bX7Tk87Q6NiRG75A+yjoNUiJN0yjtNEO+vZL8rVr+qbZ8nlrvS6qzRuO+OFuoeZa89rluI4Wqj1/yhsRo9pXGmzYvavi91y+/xGl63DHUcV9g5JuX0HyftXZPUa3vH9Sssx+VyEKjo4Tf8QP6G2iqj19lZzXo9942iUWpXyV47QfinqJ2v31QGNPtfrtkyHz6Vod/UuvjZ9mQaSlCH6J7ilp9y8sRKeB1HqR7Svr+KZ6RPKvjue8vSc06D6B5+Untvu8IjIT4WP/m5SdFep3AWfNG59sjCD9V06fEkJ4eSnP2C1p9P/56/I3/fz+DUS942BsNEtjSfWuOMS6yhwvysJLsbu5BRZzJZKrUdEPvIZ4lvaPfra5DsBA14gSRh9ajMyJHWLEeO+Hjt2GvSh5Xh0nv6HeLI0yNnCp6dIlGIEyVx7Vkd3MfEggfpYAwaQ0qFT/3DWaV+mIcXZjV5936YjSOe1VtOKnUK0X6Sp6wXKxP+EDsjRb1emWWZK86qlpWdUK2PMMYWRaqMqAy/dVxHPLMVsn+w24VkasWQtV6LzXnCBFyEAoRRw4mT5B1GM+S+rOT8oG3vWpqhLxa7ZXrOt1a8KsnB3d7/GvGc+yEFy284Gw4816GJv66LbcOWaM/zcZURgwLhzhd8mwFZwQ5mDPjEFnCRYtiqF3b2HKEdXieSB1hhJloz95O64EBiZcG2wstMKpm4qQSSoBkyTZBQh+IxMuczHg+Nc7M5weBu2I/WQyr4WISYj8gnARuH61Dvbs38kcI8Xw2HPgzHvmtMiDJodwrWnSJk6Hra/5mLdydFItzbN1JyN4YWYvZbOIHJE4ipUaEDmKfX2a/Rbsps6hkCL598Zyl3FoYsTLhgL1owVLoIIO8T0gin4aETsb/eJoOM5ivgjO6W0wWjJmP4qi8B2EpE1JPcObhuiJCB7GV9b4VEuIg0dHkgsXUTmMKjYLgCsoB1QjfbUOHh0qELyIMkXp0Z11p2dZhlRJzIRloHlstxix6rUkS2YWXTxi5E6vZs3KNV3mEqB/3cEY18ADHEdKb4j2PnHqiTZtPiMI90D1mcFUUgxiPmJOKlbtsxRL2wrrpNW2LxCAZIeeVXblOR8K9orfakQv3PP4kasY3RhaeJ8TICFHkd9sfEI5polGCtG7FEpIcJLQTeJJKQowQR+nAJ7RUkXYnnnB+B2GqtvDmk+gOJYKoENbpjg7qqmZBrcxIhTtz93lpbVQ/QDjo2nASh3AK4SQ21HwN2WoxonooNtOEnzAeFP2uTbH+n5BCGAsRqEbzIxshQ01+TEjVY86PE6j6CmGKQjgH8cv9jfLeNojvacgF4S7RSRslMAWrhKwgIsEOteAQNGjRovVjf7qQCWsHGB9wb9vVh9BvrlE9qutFB/t7K7OR2Am3OgyyiEUTZURYp8NE2KGzW5NEqlEJwwEYFWnU1EZbulkG7A+PGXQwG/QGs21Y1ZFIWPOfdYo972Bu7rdOCZxjxBCykKETP+p2M1UkTK8Vv4qTER9jbshXCIO53msA/ZMdVFc3cO+KIxyjmL4mnK62lnpRJUxNcMyaJAaoOMLUGMuI3GFbeYvUvauEqYVyYlVN5DyxTLuqqnRzy3OB0UEZfsFCvhgR8t+QDi3BFyyc0IGpF1dIrX6jA+x3lI6FD6RvBAfdIAJJrHYHg2roBvRh+A1pMROtQ/WEZvxUuV6tduM+fLjYkiyBM/PJUD1AGky2NINsJ14CKpJ1voFmqMod4pTJm5B1JGMVkxz1x3feXDLol+88HiuPx+PgYq0XLiv3anevA4FAIBAIBAKBQCAQCAQCgUAgEAgEAoFAIBAIBAKBQCAQCAQCgUAgEAgEAv02/Q9qnxOKAG4JXAAAAABJRU5ErkJggg==;shadow=1;" parent="VO87fzGyyJs7BhhGHUsH-30" vertex="1">
          <mxGeometry x="20" y="19.5" width="70" height="70" as="geometry" />
        </mxCell>
        <mxCell id="VO87fzGyyJs7BhhGHUsH-34" value="" style="shape=image;verticalLabelPosition=bottom;labelBackgroundColor=default;verticalAlign=top;aspect=fixed;imageAspect=0;image=data:image/png,iVBORw0KGgoAAAANSUhEUgAAAOEAAADhCAMAAAAJbSJIAAABCFBMVEX///+hAANQUVPjAAfiAACeAAObAANLTE6fAADoAAblAAdNTlBISUulpaasAAT6+/uKiow/QEI2Nzrz8/N6fH7MAAVwAALWAAbeAAb99/e4U1SxAASnAAToAABqamzf3+C6AASFAAP57e3Ee3zW1tfHx8i9vb7o6OmWl5j82trNAAXBAAStra5tbm+Njo9ZWlz4ycrrKy/85uf5sbJnAAHvio3Kd3lgYWL2qKr1fYHvUVTsDxjza2/70dPuNzvyc3X5vsDnHyLqREj0mJrxiYrrLjR7AALsW171oKJaAADjdXbmSEnYmZutEhjpwsPdTFPeXF60MjXdFh/HUFG7PUHCX2HYkZTep6muKIhdAAALHUlEQVR4nO2bCXfSzBrH2ZJAMiwDVEAIYGVtgVIopVZrV63vvep9vW7f/5vcyUyWWVLfo9eaac/zP8ceSgaYX559qKkUCAQCgUAgEAgEAoFAIBAIBAKBQCAQCAQCgUAgEAgEAoFAIBAIBAKBQCAQCHSfWi1PTs52k97FvWn54tLNEbmn61bSe7kHrTYvCV7Wkwf56izpDf1mrV8HeFkf0i28ezyGXJ67bo7ZLuDzfrju38ukt/Y7tLo+9MlyFy+8R+Tf5YvAXS83q6Q3+H/q4jQ0XDZ3S7z1qmlfT1PXuchbTy+S3uSva3XDvDOk8ZySlgo+Jom33jxIQ7bWVzmRL3cahN2JkHU8xqsHVz/Ozl2J4vUJV+gvznPS5Zx7Pk1uuz+r1smlxJctbC6WU6GXubgSVxDkwwdiyOUrIfoiAK/QvyELdq8356eHL1/6i+xswQ699Vz7RoDWBh6Jtmm5iHOTSm3YJYpl2439Z+lGwEgWHF7rnHYurqLGLHuzPttttVq70/XmMKoYud2UHQIXsjulTvvZ0dHbfqEQReTVRdIg8Vpt3IjvXDTE7k3YztwuA++0G/10qVRqP3vy5MnRkcEZ0nU3+kXk9DaqDazwSddDxEP6oNDcaXdKpYDQg3zbb0aMtm6IS6H0bWJWvAv5vR97Ph5H+OTor7eN6D10i8Z/udl/IDwR8muTBKBIeHRkNoJYJB5c0m1Mfr5X4BEvlAVnUoG0C40+g2Rx+Kxvc3w7hqkdodnP2hFh7pXYoExf5NQS6YciyaVPzL0wzXh8HTOtH2HeMPabBY7x8NV6OV21Vqvl+sUhx8eKYc6Haex3OuTmcHzZnbSZTutImE4bZjvK+AFJxBO0AJe31+vpqwDZtpu8+Zp9w0indSX09tXZyfIBydE23ct/n79bMu9dqz5LLdo2GZ++hGRn6X5TZrRvzzfrKZf+d2Oi0i7sdUI+nQk9Zy1xzkpNeCt1AFcKYCG7T8MvUF47wmOD217aJFmHZyROyh+sXUuApHK0TeEN8vn3ybHEa1oSdpg2zX7DtgXG8IR0JfooqQ4lkS9tfPiYKE2sVk/NvLhLknUKIuPrNV36hgeU3dO7O/n/6NaUMi37kiXShtFvipDu9S4ZDzn3bLblF5mdPdt1b/RjnJ66Lilmkjm8rCM7awho2yR7yveEZSlSNnVDZLMFmWjlPRMX3BfKR1jqs/vyWtOIKk1Ot1z6txvYRU6L3sbbUvnw7oVibzO9E7a2tt3WzYZPo8mH5A7VWUlwRYwx4ScUUW+2yGtHaEYDOiFQ8j9zVnb4pFQ/wT392UI/wrwh7JJMf4oXGv29pt0k04TM19lp8h5Aq4eGhNJsYQdjkOCKpmEo7tnhsm0hnC20JGTmyHLOqmYdSSZfMYUspSsh3TOXOAtNpWMR3JMrJLZYafQllKs8LeuxhjRLe/adtyKvM2GaJs7oYILUBqWfk2JWdmdDx9mikxfnJ0LAWUjqdQy1Ooj8n3ScLb7mlSTJnWgQZw1LpFD9YiKVtAc3uvVsns7+G9Ou8ZmSlEjTE5duPfc0lNmCGD/nvkuaR1brjZuLb9f4rFNoNps2Vx1iZos2M29Ou1P9czfM+HHtWlaVHeOe0SlWYa+cNJKkz/xsoRpGnS3UWZJzX9vu61ctSmFWsdVzibR0ohE3W0R3gTTuhoazRd7cb9rhFhvqbGGGs4VnZukil11tFs0aEopFnHih0ncb7Z1Gls4WqnsWotcx79WRkA26UaZUTzTIXGGqs0XU43m2D4qHnoS+M/6o2kkyTM49hd5GW0Kp8Y45Db3TPaXWW19CqV8jeUXJOsGd2OPcU7K28SlpIlnPxRNv0+tNwu2T2UI2JElL3AKpTyCjxRfdTJhKHefz4qk+f7wmM5DZIjCyTXobiT+f1/FrCzJcfFYY01HjzTsrqX5Zzj0lH84bX7Tk87Q6NiRG75A+yjoNUiJN0yjtNEO+vZL8rVr+qbZ8nlrvS6qzRuO+OFuoeZa89rluI4Wqj1/yhsRo9pXGmzYvavi91y+/xGl63DHUcV9g5JuX0HyftXZPUa3vH9Sssx+VyEKjo4Tf8QP6G2iqj19lZzXo9942iUWpXyV47QfinqJ2v31QGNPtfrtkyHz6Vod/UuvjZ9mQaSlCH6J7ilp9y8sRKeB1HqR7Svr+KZ6RPKvjue8vSc06D6B5+Untvu8IjIT4WP/m5SdFep3AWfNG59sjCD9V06fEkJ4eSnP2C1p9P/56/I3/fz+DUS942BsNEtjSfWuOMS6yhwvysJLsbu5BRZzJZKrUdEPvIZ4lvaPfra5DsBA14gSRh9ajMyJHWLEeO+Hjt2GvSh5Xh0nv6HeLI0yNnCp6dIlGIEyVx7Vkd3MfEggfpYAwaQ0qFT/3DWaV+mIcXZjV5936YjSOe1VtOKnUK0X6Sp6wXKxP+EDsjRb1emWWZK86qlpWdUK2PMMYWRaqMqAy/dVxHPLMVsn+w24VkasWQtV6LzXnCBFyEAoRRw4mT5B1GM+S+rOT8oG3vWpqhLxa7ZXrOt1a8KsnB3d7/GvGc+yEFy284Gw4816GJv66LbcOWaM/zcZURgwLhzhd8mwFZwQ5mDPjEFnCRYtiqF3b2HKEdXieSB1hhJloz95O64EBiZcG2wstMKpm4qQSSoBkyTZBQh+IxMuczHg+Nc7M5weBu2I/WQyr4WISYj8gnARuH61Dvbs38kcI8Xw2HPgzHvmtMiDJodwrWnSJk6Hra/5mLdydFItzbN1JyN4YWYvZbOIHJE4ipUaEDmKfX2a/Rbsps6hkCL598Zyl3FoYsTLhgL1owVLoIIO8T0gin4aETsb/eJoOM5ivgjO6W0wWjJmP4qi8B2EpE1JPcObhuiJCB7GV9b4VEuIg0dHkgsXUTmMKjYLgCsoB1QjfbUOHh0qELyIMkXp0Z11p2dZhlRJzIRloHlstxix6rUkS2YWXTxi5E6vZs3KNV3mEqB/3cEY18ADHEdKb4j2PnHqiTZtPiMI90D1mcFUUgxiPmJOKlbtsxRL2wrrpNW2LxCAZIeeVXblOR8K9orfakQv3PP4kasY3RhaeJ8TICFHkd9sfEI5polGCtG7FEpIcJLQTeJJKQowQR+nAJ7RUkXYnnnB+B2GqtvDmk+gOJYKoENbpjg7qqmZBrcxIhTtz93lpbVQ/QDjo2nASh3AK4SQ21HwN2WoxonooNtOEnzAeFP2uTbH+n5BCGAsRqEbzIxshQ01+TEjVY86PE6j6CmGKQjgH8cv9jfLeNojvacgF4S7RSRslMAWrhKwgIsEOteAQNGjRovVjf7qQCWsHGB9wb9vVh9BvrlE9qutFB/t7K7OR2Am3OgyyiEUTZURYp8NE2KGzW5NEqlEJwwEYFWnU1EZbulkG7A+PGXQwG/QGs21Y1ZFIWPOfdYo972Bu7rdOCZxjxBCykKETP+p2M1UkTK8Vv4qTER9jbshXCIO53msA/ZMdVFc3cO+KIxyjmL4mnK62lnpRJUxNcMyaJAaoOMLUGMuI3GFbeYvUvauEqYVyYlVN5DyxTLuqqnRzy3OB0UEZfsFCvhgR8t+QDi3BFyyc0IGpF1dIrX6jA+x3lI6FD6RvBAfdIAJJrHYHg2roBvRh+A1pMROtQ/WEZvxUuV6tduM+fLjYkiyBM/PJUD1AGky2NINsJ14CKpJ1voFmqMod4pTJm5B1JGMVkxz1x3feXDLol+88HiuPx+PgYq0XLiv3anevA4FAIBAIBAKBQCAQCAQCgUAgEAgEAoFAIBAIBAKBQCAQCAQCgUAgEAgEAv02/Q9qnxOKAG4JXAAAAABJRU5ErkJggg==;shadow=1;" parent="VO87fzGyyJs7BhhGHUsH-30" vertex="1">
          <mxGeometry x="110" y="19.5" width="70" height="70" as="geometry" />
        </mxCell>
        <mxCell id="VO87fzGyyJs7BhhGHUsH-35" value="" style="shape=image;verticalLabelPosition=bottom;labelBackgroundColor=default;verticalAlign=top;aspect=fixed;imageAspect=0;image=data:image/png,iVBORw0KGgoAAAANSUhEUgAAAOEAAADhCAMAAAAJbSJIAAABCFBMVEX///+hAANQUVPjAAfiAACeAAObAANLTE6fAADoAAblAAdNTlBISUulpaasAAT6+/uKiow/QEI2Nzrz8/N6fH7MAAVwAALWAAbeAAb99/e4U1SxAASnAAToAABqamzf3+C6AASFAAP57e3Ee3zW1tfHx8i9vb7o6OmWl5j82trNAAXBAAStra5tbm+Njo9ZWlz4ycrrKy/85uf5sbJnAAHvio3Kd3lgYWL2qKr1fYHvUVTsDxjza2/70dPuNzvyc3X5vsDnHyLqREj0mJrxiYrrLjR7AALsW171oKJaAADjdXbmSEnYmZutEhjpwsPdTFPeXF60MjXdFh/HUFG7PUHCX2HYkZTep6muKIhdAAALHUlEQVR4nO2bCXfSzBrH2ZJAMiwDVEAIYGVtgVIopVZrV63vvep9vW7f/5vcyUyWWVLfo9eaac/zP8ceSgaYX559qKkUCAQCgUAgEAgEAoFAIBAIBAKBQCAQCAQCgUAgEAgEAoFAIBAIBAKBQCAQCHSfWi1PTs52k97FvWn54tLNEbmn61bSe7kHrTYvCV7Wkwf56izpDf1mrV8HeFkf0i28ezyGXJ67bo7ZLuDzfrju38ukt/Y7tLo+9MlyFy+8R+Tf5YvAXS83q6Q3+H/q4jQ0XDZ3S7z1qmlfT1PXuchbTy+S3uSva3XDvDOk8ZySlgo+Jom33jxIQ7bWVzmRL3cahN2JkHU8xqsHVz/Ozl2J4vUJV+gvznPS5Zx7Pk1uuz+r1smlxJctbC6WU6GXubgSVxDkwwdiyOUrIfoiAK/QvyELdq8356eHL1/6i+xswQ699Vz7RoDWBh6Jtmm5iHOTSm3YJYpl2439Z+lGwEgWHF7rnHYurqLGLHuzPttttVq70/XmMKoYud2UHQIXsjulTvvZ0dHbfqEQReTVRdIg8Vpt3IjvXDTE7k3YztwuA++0G/10qVRqP3vy5MnRkcEZ0nU3+kXk9DaqDazwSddDxEP6oNDcaXdKpYDQg3zbb0aMtm6IS6H0bWJWvAv5vR97Ph5H+OTor7eN6D10i8Z/udl/IDwR8muTBKBIeHRkNoJYJB5c0m1Mfr5X4BEvlAVnUoG0C40+g2Rx+Kxvc3w7hqkdodnP2hFh7pXYoExf5NQS6YciyaVPzL0wzXh8HTOtH2HeMPabBY7x8NV6OV21Vqvl+sUhx8eKYc6Haex3OuTmcHzZnbSZTutImE4bZjvK+AFJxBO0AJe31+vpqwDZtpu8+Zp9w0indSX09tXZyfIBydE23ct/n79bMu9dqz5LLdo2GZ++hGRn6X5TZrRvzzfrKZf+d2Oi0i7sdUI+nQk9Zy1xzkpNeCt1AFcKYCG7T8MvUF47wmOD217aJFmHZyROyh+sXUuApHK0TeEN8vn3ybHEa1oSdpg2zX7DtgXG8IR0JfooqQ4lkS9tfPiYKE2sVk/NvLhLknUKIuPrNV36hgeU3dO7O/n/6NaUMi37kiXShtFvipDu9S4ZDzn3bLblF5mdPdt1b/RjnJ66Lilmkjm8rCM7awho2yR7yveEZSlSNnVDZLMFmWjlPRMX3BfKR1jqs/vyWtOIKk1Ot1z6txvYRU6L3sbbUvnw7oVibzO9E7a2tt3WzYZPo8mH5A7VWUlwRYwx4ScUUW+2yGtHaEYDOiFQ8j9zVnb4pFQ/wT392UI/wrwh7JJMf4oXGv29pt0k04TM19lp8h5Aq4eGhNJsYQdjkOCKpmEo7tnhsm0hnC20JGTmyHLOqmYdSSZfMYUspSsh3TOXOAtNpWMR3JMrJLZYafQllKs8LeuxhjRLe/adtyKvM2GaJs7oYILUBqWfk2JWdmdDx9mikxfnJ0LAWUjqdQy1Ooj8n3ScLb7mlSTJnWgQZw1LpFD9YiKVtAc3uvVsns7+G9Ou8ZmSlEjTE5duPfc0lNmCGD/nvkuaR1brjZuLb9f4rFNoNps2Vx1iZos2M29Ou1P9czfM+HHtWlaVHeOe0SlWYa+cNJKkz/xsoRpGnS3UWZJzX9vu61ctSmFWsdVzibR0ohE3W0R3gTTuhoazRd7cb9rhFhvqbGGGs4VnZukil11tFs0aEopFnHih0ncb7Z1Gls4WqnsWotcx79WRkA26UaZUTzTIXGGqs0XU43m2D4qHnoS+M/6o2kkyTM49hd5GW0Kp8Y45Db3TPaXWW19CqV8jeUXJOsGd2OPcU7K28SlpIlnPxRNv0+tNwu2T2UI2JElL3AKpTyCjxRfdTJhKHefz4qk+f7wmM5DZIjCyTXobiT+f1/FrCzJcfFYY01HjzTsrqX5Zzj0lH84bX7Tk87Q6NiRG75A+yjoNUiJN0yjtNEO+vZL8rVr+qbZ8nlrvS6qzRuO+OFuoeZa89rluI4Wqj1/yhsRo9pXGmzYvavi91y+/xGl63DHUcV9g5JuX0HyftXZPUa3vH9Sssx+VyEKjo4Tf8QP6G2iqj19lZzXo9942iUWpXyV47QfinqJ2v31QGNPtfrtkyHz6Vod/UuvjZ9mQaSlCH6J7ilp9y8sRKeB1HqR7Svr+KZ6RPKvjue8vSc06D6B5+Untvu8IjIT4WP/m5SdFep3AWfNG59sjCD9V06fEkJ4eSnP2C1p9P/56/I3/fz+DUS942BsNEtjSfWuOMS6yhwvysJLsbu5BRZzJZKrUdEPvIZ4lvaPfra5DsBA14gSRh9ajMyJHWLEeO+Hjt2GvSh5Xh0nv6HeLI0yNnCp6dIlGIEyVx7Vkd3MfEggfpYAwaQ0qFT/3DWaV+mIcXZjV5936YjSOe1VtOKnUK0X6Sp6wXKxP+EDsjRb1emWWZK86qlpWdUK2PMMYWRaqMqAy/dVxHPLMVsn+w24VkasWQtV6LzXnCBFyEAoRRw4mT5B1GM+S+rOT8oG3vWpqhLxa7ZXrOt1a8KsnB3d7/GvGc+yEFy284Gw4816GJv66LbcOWaM/zcZURgwLhzhd8mwFZwQ5mDPjEFnCRYtiqF3b2HKEdXieSB1hhJloz95O64EBiZcG2wstMKpm4qQSSoBkyTZBQh+IxMuczHg+Nc7M5weBu2I/WQyr4WISYj8gnARuH61Dvbs38kcI8Xw2HPgzHvmtMiDJodwrWnSJk6Hra/5mLdydFItzbN1JyN4YWYvZbOIHJE4ipUaEDmKfX2a/Rbsps6hkCL598Zyl3FoYsTLhgL1owVLoIIO8T0gin4aETsb/eJoOM5ivgjO6W0wWjJmP4qi8B2EpE1JPcObhuiJCB7GV9b4VEuIg0dHkgsXUTmMKjYLgCsoB1QjfbUOHh0qELyIMkXp0Z11p2dZhlRJzIRloHlstxix6rUkS2YWXTxi5E6vZs3KNV3mEqB/3cEY18ADHEdKb4j2PnHqiTZtPiMI90D1mcFUUgxiPmJOKlbtsxRL2wrrpNW2LxCAZIeeVXblOR8K9orfakQv3PP4kasY3RhaeJ8TICFHkd9sfEI5polGCtG7FEpIcJLQTeJJKQowQR+nAJ7RUkXYnnnB+B2GqtvDmk+gOJYKoENbpjg7qqmZBrcxIhTtz93lpbVQ/QDjo2nASh3AK4SQ21HwN2WoxonooNtOEnzAeFP2uTbH+n5BCGAsRqEbzIxshQ01+TEjVY86PE6j6CmGKQjgH8cv9jfLeNojvacgF4S7RSRslMAWrhKwgIsEOteAQNGjRovVjf7qQCWsHGB9wb9vVh9BvrlE9qutFB/t7K7OR2Am3OgyyiEUTZURYp8NE2KGzW5NEqlEJwwEYFWnU1EZbulkG7A+PGXQwG/QGs21Y1ZFIWPOfdYo972Bu7rdOCZxjxBCykKETP+p2M1UkTK8Vv4qTER9jbshXCIO53msA/ZMdVFc3cO+KIxyjmL4mnK62lnpRJUxNcMyaJAaoOMLUGMuI3GFbeYvUvauEqYVyYlVN5DyxTLuqqnRzy3OB0UEZfsFCvhgR8t+QDi3BFyyc0IGpF1dIrX6jA+x3lI6FD6RvBAfdIAJJrHYHg2roBvRh+A1pMROtQ/WEZvxUuV6tduM+fLjYkiyBM/PJUD1AGky2NINsJ14CKpJ1voFmqMod4pTJm5B1JGMVkxz1x3feXDLol+88HiuPx+PgYq0XLiv3anevA4FAIBAIBAKBQCAQCAQCgUAgEAgEAoFAIBAIBAKBQCAQCAQCgUAgEAgEAv02/Q9qnxOKAG4JXAAAAABJRU5ErkJggg==;shadow=1;" parent="VO87fzGyyJs7BhhGHUsH-30" vertex="1">
          <mxGeometry x="200" y="19.5" width="70" height="70" as="geometry" />
        </mxCell>
        <mxCell id="VO87fzGyyJs7BhhGHUsH-49" style="edgeStyle=orthogonalEdgeStyle;rounded=0;orthogonalLoop=1;jettySize=auto;html=1;exitX=0.5;exitY=0;exitDx=0;exitDy=0;shadow=0;strokeColor=#6c8ebf;strokeWidth=3;align=center;verticalAlign=middle;fontFamily=Helvetica;fontSize=12;fontColor=default;fontStyle=1;labelBackgroundColor=default;startSize=0;endArrow=classic;fillColor=#dae8fc;" parent="2" source="VO87fzGyyJs7BhhGHUsH-30" edge="1">
          <mxGeometry relative="1" as="geometry">
            <mxPoint x="810" y="650" as="targetPoint" />
            <Array as="points">
              <mxPoint x="620" y="650" />
            </Array>
          </mxGeometry>
        </mxCell>
        <mxCell id="VO87fzGyyJs7BhhGHUsH-75" value="&lt;font color=&quot;#4277bb&quot; style=&quot;font-size: 15px;&quot;&gt;读写&lt;/font&gt;" style="edgeLabel;html=1;align=center;verticalAlign=middle;resizable=0;points=[];" parent="VO87fzGyyJs7BhhGHUsH-49" vertex="1" connectable="0">
          <mxGeometry x="0.2091" y="1" relative="1" as="geometry">
            <mxPoint x="27" y="1" as="offset" />
          </mxGeometry>
        </mxCell>
        <mxCell id="VO87fzGyyJs7BhhGHUsH-42" value="" style="endArrow=classic;html=1;rounded=0;entryX=0.5;entryY=0;entryDx=0;entryDy=0;strokeColor=#6C8EBF;strokeWidth=3;" parent="2" target="VO87fzGyyJs7BhhGHUsH-30" edge="1">
          <mxGeometry width="50" height="50" relative="1" as="geometry">
            <mxPoint x="620" y="630" as="sourcePoint" />
            <mxPoint x="640" y="540" as="targetPoint" />
          </mxGeometry>
        </mxCell>
        <mxCell id="VO87fzGyyJs7BhhGHUsH-43" value="&lt;font color=&quot;#4277bb&quot; style=&quot;font-size: 15px;&quot;&gt;缓存&lt;/font&gt;" style="edgeLabel;html=1;align=center;verticalAlign=middle;resizable=0;points=[];" parent="VO87fzGyyJs7BhhGHUsH-42" vertex="1" connectable="0">
          <mxGeometry x="-0.0382" y="-1" relative="1" as="geometry">
            <mxPoint y="2" as="offset" />
          </mxGeometry>
        </mxCell>
        <mxCell id="VO87fzGyyJs7BhhGHUsH-55" value="" style="swimlane;shadow=0;strokeColor=#6c8ebf;fillColor=#dae8fc;align=center;startSize=0;collapsible=0;strokeWidth=3;" parent="2" vertex="1">
          <mxGeometry x="270" y="190" width="190" height="90" as="geometry" />
        </mxCell>
        <mxCell id="VO87fzGyyJs7BhhGHUsH-56" value="" style="shape=image;verticalLabelPosition=bottom;labelBackgroundColor=default;verticalAlign=top;aspect=fixed;imageAspect=0;image=data:image/png,iVBORw0KGgoAAAANSUhEUgAAAM4AAAAoCAMAAACB3DVpAAAABGdBTUEAALGPC/xhBQAAAJxQTFRFMbb+P5X/Jsz6OqH/Htr3KcT7Na3+NK7+Htv5Hd74P5X/Htz4PZj+M6/9Jsv5LjA0LjAzINb4Op/+LjA0LTA0LjA0LjA0LzA0KsP6LjA0Lb37LjA0LjAzLjA0LjA0Li80LjAzMHqmAAAAJNL8Htz5M7P+HOf9Lrv7P5f/OKX+Jsv6K8D7O57+IdX4KMb7NKz9G+H3QZH/LzE1LjA032tU2AAAACN0Uk5T9POmsFQs59G219Hsi0Q5r250XMeag9sji3UcRzPq9l4VCgBOQdioAAAHiElEQVRo3pWZh5aiMBSGLWNHEWwM1aBi1zG+/7ttOqnoZmb27JGofPy3p1WW5SbdlJaVFmQlwHZxmxSJ9V3SAr0wHJ/7XtiLy88rngad+6QTzBo2gzQp9LWVN7TKjZ/B3N+a713lEKLfzHIJ/K7xRT9tuL3QG7dv59vtdj7f+t2wmagXDSe7/e6+21f7ySjoWTcl/hqaS7mH1nYB4RvChXnTK7p9baqz9cmVN8wK12MMxydEgv8wz/l86HtuoOnwscPrTtYeIXVmJswCf6W5VJyCbEFP2nj/L3m3RR2wYB+LBErs9zc+4UVwzviHAIUOK+tcdhf8e78wnP1fVXViw1betqWps4LszlYWdfCF9dZ+gb7Naore63WiPEKd8/P5PHRtAv30d5fH5SJo7nsE9PdXjX7U73w7VipbT2vJ98HCUMd+w6n8yXBp0nRPCOdFxGHyYJzz83AYmE4RPHYXBnMRNAjnr/oL6l2Fk0YzthonT63qZLrv+NAtNrad8eulqCNwkD593Sei6wOti6IOxUFAgmebfYtTqwjXG5s6urGl6ifr8oBum+C8alt7chqkj8YTPR4cB0W1OwoG1Z7Lg3h+dFOzRDbFe1u/9d3BBbCpo+EsmU9Cu/d4rxdX5zbuhtPZNPQGt6cA6k9VGqQOdp37DqWcn9nsJxhO/hgNWhQerPmXrZcf8o6Eoz1puzpcd7jI2ZvmSkx7sYVgQvF0Zl3CguU5SjzR43pl6kwCESbiCAFRmmoEZIOAK/AhFys4b/j70XcKJk6+8TmXbGpjTtP21KTaFzytqUkzjOVv6Q0rpg51nyK3Wc8XOHmhqWNUBQuWpxZlAs1gEAoaPcn0BhgG/1wH5K5AdCUL0ewi7T5Bh/FUEyzanD24Vfl/OEiLtNl3Uu45RbllFi2ZqBDnZaZMwoPVYdEaa0PVuUTmU+f6EHnYPSq28xWO7CpWdXjWxdv4/+sdwnM8W/YfYHGOg5hq8zgeMc71sYtsm0eS91B14P+oA43wZlMHZJIim1opNay9xtb6DPMImuuRm1pkvbGfqg5uCX+G3/oOzEQdli8bqgKWnWnKBXowELbmOaqzAaMpO9fjkahzddCU5ai2tpQH0cYSnuAwIdebBdTCm00dn5ZrDICXHryeiBlN21U8xxHVpoNc6NpMUwZUnmoo4g+JQEu+VkUKnDgZ2IhCgpXJFnU2uVLf6cGAu874Q1vXORyZOI/AuWvGcEZ1LNDKgny92rpwtmWSq+HNog4vNvhrcmCQwrTXaOOgeyQ4SJ5H4N4ZT6i14VjAn5vKg+PU3InDwzu/PVMdoIfmVFUrbHYdTnM9MnWOQdO+SVVnnsTa7WCmJXDhSJWeD2zqJPxyoiZV7kvf4WDHoTSPqBGHqjMh9zu3d2+Yx4kjan+yiRmshGOWNUqkEzjdZt+JjkQeZGzHBh5mbKxsKxNHjwCVPk3F2dZt85w3nTWOyDO1wYpgsPqfUBAdRSiIvgoF5NuXmXVYoGQjFafciFI8Tw3f4bVGLgWHpRwM4vanQN0Na55rM48cqBnQ3F/nfNVosjwaTu1zcO3nqjpgTV+AvtLMyZUBT6MhcKXRVsjtjWbRh4sHjCqtJSWvbvhKC184uhun7srhW7vCSw11esODgc9mHlQe4ChyDodWKIqc47dFjmOtWHEvWRsfTNUmpc9MxBVhV2r/I1cGH0vQJ+cpWXuAeBwlqOY6tklsZgQrQx1jtME9ZZO9bWU6+0xa7jY1CPGA9DuHw5XzMGuz8igNgmutmTwbWR09u4ipoKoOT7K5NppeyuUuD9Wv9tRodw6030HtaFw3PHhY0NC+/U3ijzjvvFGdOrwp6shOYpvskGBQy9NWKx3UXJ9pO3pQmmvav+2Gyl3rzbVjsQpSvnemjkxYt5xUnY1614ljxEs5ufecTqfxVBl90OGHNCogPGwwtVNHH4Jm1FD9AT83hhVcHQVHGTqyK0v4fttnvLyTp1bo1Ty3sRdOZ7PQG58FjW0w9bhgB6oHUxymDmvbxFjFSqTIZWmok9lGhpI6Yh61cgYYegl0X/XY8HzD/zyluaF1bEiGoBd6hFDtxRS0HhumlnFhDhV7Ab0ZEOq8jeEgVNUpFAlU0ZcsttH4D+qhLj0QaRzqBhfOg2B2ypBacpzUVqyJaQBxt1GFh/Qs76i+o4Q3qo5wEIsx8/zK3IroQ9WRcTDNwMyJwfUiDhB26ow6cA2SlUWyOklT1aTHcTL9qYuOiYBqjY0VHfKgh4qD00sbueOprv1AJBxRW5MPRO7agUgDDq2HaQ1RDV3qoI9g+ZGYEA8EmTXS/OopiR5XqQciz76rkuvw85ALpSEjXeW4yokD87lUElUTcfpm+ARIsK/RdkLtA8wEwCuDX+kwkcFQHATjxcB9mIg8RzoQqSZD1SpTR6sDFyxtxH8VCR04spE4YTmGLhZZvihoIGC7HIOhJbten7ACMPXabX729s1RL3Odaj8ZRj0jVVvWO/PrU/UA8VRR2eIh3X7cvqUvb1O6XEfv/Lo8KgIodk69/u3mhbOP4z60PZ4Gw/t9GEwtKm7nv/qaF6niH7MhdrZ/lUK0kLYeen4AAAAASUVORK5CYII=;" parent="VO87fzGyyJs7BhhGHUsH-55" vertex="1">
          <mxGeometry x="20" y="30" width="154.5" height="30" as="geometry" />
        </mxCell>
        <mxCell id="VO87fzGyyJs7BhhGHUsH-79" value="" style="swimlane;shadow=0;strokeColor=#6c8ebf;fillColor=#dae8fc;align=center;startSize=0;collapsible=0;strokeWidth=3;" parent="2" vertex="1">
          <mxGeometry x="1375" y="50" width="130" height="140" as="geometry" />
        </mxCell>
        <mxCell id="VO87fzGyyJs7BhhGHUsH-84" value="Micrometer&lt;div&gt;Ttracing&lt;/div&gt;" style="text;html=1;align=center;verticalAlign=middle;whiteSpace=wrap;rounded=0;fillColor=#dae8fc;strokeColor=#6c8ebf;perimeterSpacing=0;fontSize=15;fontColor=#4277BB;" parent="VO87fzGyyJs7BhhGHUsH-79" vertex="1">
          <mxGeometry x="15" y="20" width="100" height="42.5" as="geometry" />
        </mxCell>
        <mxCell id="VO87fzGyyJs7BhhGHUsH-85" value="Zipkin" style="text;html=1;align=center;verticalAlign=middle;whiteSpace=wrap;rounded=0;fillColor=#dae8fc;strokeColor=#6c8ebf;perimeterSpacing=0;fontSize=15;fontColor=#4277BB;" parent="VO87fzGyyJs7BhhGHUsH-79" vertex="1">
          <mxGeometry x="15" y="80" width="100" height="30" as="geometry" />
        </mxCell>
        <mxCell id="VO87fzGyyJs7BhhGHUsH-86" value="" style="swimlane;shadow=0;strokeColor=#6c8ebf;fillColor=#dae8fc;align=center;startSize=0;collapsible=0;strokeWidth=3;" parent="2" vertex="1">
          <mxGeometry x="1370" y="230" width="140" height="110" as="geometry" />
        </mxCell>
        <mxCell id="VO87fzGyyJs7BhhGHUsH-87" value="Email" style="text;html=1;align=center;verticalAlign=middle;whiteSpace=wrap;rounded=0;fillColor=#dae8fc;strokeColor=#6c8ebf;perimeterSpacing=0;fontSize=15;fontColor=#4277BB;" parent="VO87fzGyyJs7BhhGHUsH-86" vertex="1">
          <mxGeometry x="14" y="22.5" width="100" height="30" as="geometry" />
        </mxCell>
        <mxCell id="VO87fzGyyJs7BhhGHUsH-88" value="企业微信hook" style="text;html=1;align=center;verticalAlign=middle;whiteSpace=wrap;rounded=0;fillColor=#dae8fc;strokeColor=#6c8ebf;perimeterSpacing=0;fontSize=15;fontColor=#4277BB;" parent="VO87fzGyyJs7BhhGHUsH-86" vertex="1">
          <mxGeometry x="14" y="65.5" width="116" height="30" as="geometry" />
        </mxCell>
        <mxCell id="VO87fzGyyJs7BhhGHUsH-91" style="edgeStyle=orthogonalEdgeStyle;rounded=0;orthogonalLoop=1;jettySize=auto;html=1;entryX=0;entryY=0.5;entryDx=0;entryDy=0;shadow=0;strokeColor=#6c8ebf;strokeWidth=3;align=center;verticalAlign=middle;fontFamily=Helvetica;fontSize=12;fontColor=default;fontStyle=1;labelBackgroundColor=default;startSize=0;endArrow=classic;fillColor=#dae8fc;exitX=1;exitY=0.342;exitDx=0;exitDy=0;exitPerimeter=0;" parent="2" source="deoy2cFSpnk__pdyX7yM-142" target="VO87fzGyyJs7BhhGHUsH-86" edge="1">
          <mxGeometry relative="1" as="geometry">
            <mxPoint x="1200" y="310" as="sourcePoint" />
            <mxPoint x="1332" y="311" as="targetPoint" />
            <Array as="points">
              <mxPoint x="1240" y="285" />
            </Array>
          </mxGeometry>
        </mxCell>
        <mxCell id="VO87fzGyyJs7BhhGHUsH-92" value="&lt;font color=&quot;#4277bb&quot; style=&quot;font-size: 15px;&quot;&gt;告警&lt;/font&gt;" style="edgeLabel;html=1;align=center;verticalAlign=middle;resizable=0;points=[];" parent="VO87fzGyyJs7BhhGHUsH-91" vertex="1" connectable="0">
          <mxGeometry x="-0.1165" y="-2" relative="1" as="geometry">
            <mxPoint x="7" y="-2" as="offset" />
          </mxGeometry>
        </mxCell>
        <mxCell id="VO87fzGyyJs7BhhGHUsH-94" value="" style="swimlane;shadow=0;strokeColor=#6c8ebf;fillColor=#dae8fc;align=center;startSize=0;collapsible=0;strokeWidth=3;" parent="2" vertex="1">
          <mxGeometry x="1370" y="382" width="110" height="250" as="geometry" />
        </mxCell>
        <mxCell id="VO87fzGyyJs7BhhGHUsH-95" value="Master" style="shape=image;verticalLabelPosition=bottom;labelBackgroundColor=default;verticalAlign=top;aspect=fixed;imageAspect=0;image=data:image/png,iVBORw0KGgoAAAANSUhEUgAAALoAAAC6CAMAAAAu0KfDAAAAkFBMVEX///9dh6H4mB34kQD4lQD7zJ74lg5Xg5793sP4kwBNfZr//Pr7wolIepj2+PlQf5u8y9X4jQDf5uuJpbjr7/J2mK7R2+Jpj6ebssKQqrysv8y1xtE/dZTF0tuAn7Okucf/+PH5pkv+7Nz4nCr95tH6smj80Kr6uHX5oUT+8uf6vX/5rVkxbY/7w5D817b5njiXJjONAAAIfElEQVR4nO1biXKqShAViIxCBmRHFkHFqBj1///udc8AopLcl0UDVXMqt4INyT3T9HJmyWgkICAgICAgICAgICAgICAgICAgICAgICAgICAgICAgICAgICAg8GAYf03gu7AlTfPiIdJ3PWnhkYTG7l8z+TJSmo7c2Zwknv/XVL6KlCJlw1/QIIzidEi+d72Afw+ThJok8KLhhH1EM35hp3HmBISS2WDIOxDtF6QLaThh70qB3fpopA41h1IsfRoypkaVo26sac5A8jVOmNtTM64Mrkmv3kR/4XoO+x5KDV/HTIYR8FnCI8ZrwsTICB0E91lVZFpBYkSaNATubuDd2YwsGUS8z2lHNVxQbwB1xteie6OxoM7zqXwZntfhdjtIZs+n8lX4SdxhjQkZQMh4UldOLsz505l8Ga4kdTjYN6X03to3+O9dZXxO5/1XYhHtCmt3AMXd8JxO93q0o2z2Cy7troN+EvS9yPidFQaGtOh9bQ8/avozTXouky/D6Q51FPNJz+uj92HviczgmUS+Dk7dyO7Dxg5Iv6Od18bsvSNZQ61Lm/UHDqapTcwOmev2XA1E2DVnlCQdhWZOF32u7T6uAMy1udSRri4xF12auCdwSWhA1/fDLoXuU2oG/V0Ri6g9MolvJJ2TutSRqNbXdVRbcnxc8wrN7jUMN3YSp6cqckYlChXS8D6SBMaMBD0tNWnAvGp7H8pc16NZP4OmYmV/PLswop63J+MjKTbCdyL1mvso7aTn+mmahnTRa+6Gf5eqbhx6JHlPyKLnG2XGHb1YI1qQ+bbbZ03QDVfrWpccBlJC+6sFPocRk8Txh0ne8KVECofJfWSECb3f/xgIjJBof+h3Pc9zvdO+z/N//rTt/Gibxp0xXA/fjcEU/3PXrXg7ltvyOJ7kV+bVaVxuN5tyfNq3nwXsRzeIwx9w900CuBHWGQWbFn7+k/n2PFUU+FLWm3HemPXjUgXzFG7Ih7fmlYzhOWVy/9//YM4xIxKAXNM0me3z5fBiN1VlWVZVFf8ta+6rAzNzqOqm5j5+gY/31H9y0C3j1K+Czk+Y7dO5e3EGhqq8Wy6Xu7VqjSuKxXoK5vV5tzvLOATr/A/qP8CcUZeulkdC7nXvkzlYvlWAymGCjPVivFlx836HzDcY/PkJH5Gt14dRdzh1M2vZ+GCkzzYhCvT5oUk7vXJ6CWyVY14ZjxZGTfEo6gtOvR0dfvUiyCcl5gSs1PGtdY/Wc5Oa+QZGMi3Z9e9Tdz1CPOeaZ1iZPpjPI/RXILW+Y7KBcLGKy+cCo2q5egx1G6nPAiJdZCiOJoyBuobxb0dxHDWRY8yiOPIr6vLp5pflZ3DystWichyLenoQ9YBArEDUkGaOm8IriH30Oq6wpSbVkkYo2QF8grTQx0D9ZXvTSE8wHOUqivAxbvl96j6GuRFBdNPatZkJCWoHmLoGHkwgrdKJI5JwifzEMvDt+pcdIXetK3onFYM9fwh1dLFj2JrURAy8AuLh25BM5mws/Fo9rNSUSIApsOJl/Xj1y7YQHtNV2zJZg2Wzfwj1mLCuyQoKt/jALsKjxTimEXe0WSdCZOJLwqs3DHZZWbeSMt9AY11fUS92YFo+hjpwMUEEROB2flYOLzV3ZHhNnEDokIAHuwHNivA1UP3IdYC1KeqI3x+A5+6K+moJpvPqkdRdKrHvuNVMCG4RInW+Q4u9tdo5d9FaNS99vOaOl4+rFs/dlTpko1k/hnrGqY8gtCW2uwZhzzora1WMsA2KRuPL+TZpN4CiVJjSUnZcOD6XOosAZBqhbEFSmSaxjRQUCCb3NcWIYVc+Xl60nj45W1wgMklwiY6nUAf1RTAHscYw5atVFR5lWbUZdIkYeEfkekJ5YvpQnq73H1PfPYS6C84lGAwsiqF2QHTw4Agvpd6mVXvCBNBudoLy4xrJK0vOU5bv0nR6eEiFYX2UkYFAwYgBD5uMMJbz6lCoEeCw8EJr3kQLE8YdpAsWR1kp2vdQ1U+3+UOoezX1lLDyHdQlMcZOxLeWMSEkrDYQ6qTjgMIEKw0IRH1z303xhRz1R1AH9cUbO7sic2iuGi9+M7OpKyNf4+2/Lke3OKDIgogpX7o0zJTJhd+njkWRT5AwuIOgqjPVW6hKOL4b5Cy1JEEbTLzvoMOiONi1lSNIA3VXPJr6jImBRmrhfKNxMZbQhWuTmzlsm/r0AEm5xqBv5WmBkcT15a9T9y/TUjeQ2msDIGUu1HHZILCj+/rCgQGjoBLDEoNjqLG9qPrHUK/aYzXVq0592Ei93rJlKZHiA3Ur1VtNk6WphQYmhZVGCo/ZJEl/EHV0Z0VnxtYB6pNlSP3SfrD8O4FkNkszxXo54Zz0MRMD3NfnKTbX15zdYDOpOn5+n7rZmvhTjJfG0aRNHUslftUHcfTSUi1rWY5fDworjWfGdrTHZRhZUQ5ldaOZBCJ1uGHhIphibfLRVt6slNVEvlvM+7/UtYvXsVdKzZ8muKRRLjgQngfNJFA/omxUgcWU+XxZ52axY4TV6sa0bK9+NVCgS+njVX4oT8vvUk8T8/LHCLN3U3uv77iJaWqk/mTwxZpLkurFcW1xxT611OOlqqxeVW4H+riyUVbddcz9zWEB9fy12JflsbwSDl+AHWZZVNc7Az80ZDNE8yC+EYm0f1Rfnbbnl+mLvHlb6Vf2t80aAkM9vELIqMp5y8hNXlso33SQnfv8tJ9Mvuv1/w2snPTuQIKO6Hha5zfyDQp6Vblbanom2AT1G3+yUBxU9UYHPxlMYH7rQG7+trT+0uk+lvXvHpVb3e9lPAeus1h4KHTMfp+t7IAbmARcTj5b9e0p3DnyDubDO4gA3NM4nvX0iJmAgICAgICAgICAgICAgICAgICAgICAgICAgICAgICAwN/jP+cYlB5Vwlp+AAAAAElFTkSuQmCC;shadow=1;fontSize=15;fontColor=#4277BB;" parent="VO87fzGyyJs7BhhGHUsH-94" vertex="1">
          <mxGeometry x="19" y="22.5" width="67.5" height="67.5" as="geometry" />
        </mxCell>
        <mxCell id="VO87fzGyyJs7BhhGHUsH-98" value="Slave" style="shape=image;verticalLabelPosition=bottom;labelBackgroundColor=default;verticalAlign=top;aspect=fixed;imageAspect=0;image=data:image/png,iVBORw0KGgoAAAANSUhEUgAAALoAAAC6CAMAAAAu0KfDAAAAkFBMVEX///9dh6H4mB34kQD4lQD7zJ74lg5Xg5793sP4kwBNfZr//Pr7wolIepj2+PlQf5u8y9X4jQDf5uuJpbjr7/J2mK7R2+Jpj6ebssKQqrysv8y1xtE/dZTF0tuAn7Okucf/+PH5pkv+7Nz4nCr95tH6smj80Kr6uHX5oUT+8uf6vX/5rVkxbY/7w5D817b5njiXJjONAAAIfElEQVR4nO1biXKqShAViIxCBmRHFkHFqBj1///udc8AopLcl0UDVXMqt4INyT3T9HJmyWgkICAgICAgICAgICAgICAgICAgICAgICAgICAgICAgICAgICAg8GAYf03gu7AlTfPiIdJ3PWnhkYTG7l8z+TJSmo7c2Zwknv/XVL6KlCJlw1/QIIzidEi+d72Afw+ThJok8KLhhH1EM35hp3HmBISS2WDIOxDtF6QLaThh70qB3fpopA41h1IsfRoypkaVo26sac5A8jVOmNtTM64Mrkmv3kR/4XoO+x5KDV/HTIYR8FnCI8ZrwsTICB0E91lVZFpBYkSaNATubuDd2YwsGUS8z2lHNVxQbwB1xteie6OxoM7zqXwZntfhdjtIZs+n8lX4SdxhjQkZQMh4UldOLsz505l8Ga4kdTjYN6X03to3+O9dZXxO5/1XYhHtCmt3AMXd8JxO93q0o2z2Cy7troN+EvS9yPidFQaGtOh9bQ8/avozTXouky/D6Q51FPNJz+uj92HviczgmUS+Dk7dyO7Dxg5Iv6Od18bsvSNZQ61Lm/UHDqapTcwOmev2XA1E2DVnlCQdhWZOF32u7T6uAMy1udSRri4xF12auCdwSWhA1/fDLoXuU2oG/V0Ri6g9MolvJJ2TutSRqNbXdVRbcnxc8wrN7jUMN3YSp6cqckYlChXS8D6SBMaMBD0tNWnAvGp7H8pc16NZP4OmYmV/PLswop63J+MjKTbCdyL1mvso7aTn+mmahnTRa+6Gf5eqbhx6JHlPyKLnG2XGHb1YI1qQ+bbbZ03QDVfrWpccBlJC+6sFPocRk8Txh0ne8KVECofJfWSECb3f/xgIjJBof+h3Pc9zvdO+z/N//rTt/Gibxp0xXA/fjcEU/3PXrXg7ltvyOJ7kV+bVaVxuN5tyfNq3nwXsRzeIwx9w900CuBHWGQWbFn7+k/n2PFUU+FLWm3HemPXjUgXzFG7Ih7fmlYzhOWVy/9//YM4xIxKAXNM0me3z5fBiN1VlWVZVFf8ta+6rAzNzqOqm5j5+gY/31H9y0C3j1K+Czk+Y7dO5e3EGhqq8Wy6Xu7VqjSuKxXoK5vV5tzvLOATr/A/qP8CcUZeulkdC7nXvkzlYvlWAymGCjPVivFlx836HzDcY/PkJH5Gt14dRdzh1M2vZ+GCkzzYhCvT5oUk7vXJ6CWyVY14ZjxZGTfEo6gtOvR0dfvUiyCcl5gSs1PGtdY/Wc5Oa+QZGMi3Z9e9Tdz1CPOeaZ1iZPpjPI/RXILW+Y7KBcLGKy+cCo2q5egx1G6nPAiJdZCiOJoyBuobxb0dxHDWRY8yiOPIr6vLp5pflZ3DystWichyLenoQ9YBArEDUkGaOm8IriH30Oq6wpSbVkkYo2QF8grTQx0D9ZXvTSE8wHOUqivAxbvl96j6GuRFBdNPatZkJCWoHmLoGHkwgrdKJI5JwifzEMvDt+pcdIXetK3onFYM9fwh1dLFj2JrURAy8AuLh25BM5mws/Fo9rNSUSIApsOJl/Xj1y7YQHtNV2zJZg2Wzfwj1mLCuyQoKt/jALsKjxTimEXe0WSdCZOJLwqs3DHZZWbeSMt9AY11fUS92YFo+hjpwMUEEROB2flYOLzV3ZHhNnEDokIAHuwHNivA1UP3IdYC1KeqI3x+A5+6K+moJpvPqkdRdKrHvuNVMCG4RInW+Q4u9tdo5d9FaNS99vOaOl4+rFs/dlTpko1k/hnrGqY8gtCW2uwZhzzora1WMsA2KRuPL+TZpN4CiVJjSUnZcOD6XOosAZBqhbEFSmSaxjRQUCCb3NcWIYVc+Xl60nj45W1wgMklwiY6nUAf1RTAHscYw5atVFR5lWbUZdIkYeEfkekJ5YvpQnq73H1PfPYS6C84lGAwsiqF2QHTw4Agvpd6mVXvCBNBudoLy4xrJK0vOU5bv0nR6eEiFYX2UkYFAwYgBD5uMMJbz6lCoEeCw8EJr3kQLE8YdpAsWR1kp2vdQ1U+3+UOoezX1lLDyHdQlMcZOxLeWMSEkrDYQ6qTjgMIEKw0IRH1z303xhRz1R1AH9cUbO7sic2iuGi9+M7OpKyNf4+2/Lke3OKDIgogpX7o0zJTJhd+njkWRT5AwuIOgqjPVW6hKOL4b5Cy1JEEbTLzvoMOiONi1lSNIA3VXPJr6jImBRmrhfKNxMZbQhWuTmzlsm/r0AEm5xqBv5WmBkcT15a9T9y/TUjeQ2msDIGUu1HHZILCj+/rCgQGjoBLDEoNjqLG9qPrHUK/aYzXVq0592Ei93rJlKZHiA3Ur1VtNk6WphQYmhZVGCo/ZJEl/EHV0Z0VnxtYB6pNlSP3SfrD8O4FkNkszxXo54Zz0MRMD3NfnKTbX15zdYDOpOn5+n7rZmvhTjJfG0aRNHUslftUHcfTSUi1rWY5fDworjWfGdrTHZRhZUQ5ldaOZBCJ1uGHhIphibfLRVt6slNVEvlvM+7/UtYvXsVdKzZ8muKRRLjgQngfNJFA/omxUgcWU+XxZ52axY4TV6sa0bK9+NVCgS+njVX4oT8vvUk8T8/LHCLN3U3uv77iJaWqk/mTwxZpLkurFcW1xxT611OOlqqxeVW4H+riyUVbddcz9zWEB9fy12JflsbwSDl+AHWZZVNc7Az80ZDNE8yC+EYm0f1Rfnbbnl+mLvHlb6Vf2t80aAkM9vELIqMp5y8hNXlso33SQnfv8tJ9Mvuv1/w2snPTuQIKO6Hha5zfyDQp6Vblbanom2AT1G3+yUBxU9UYHPxlMYH7rQG7+trT+0uk+lvXvHpVb3e9lPAeus1h4KHTMfp+t7IAbmARcTj5b9e0p3DnyDubDO4gA3NM4nvX0iJmAgICAgICAgICAgICAgICAgICAgICAgICAgICAgICAwN/jP+cYlB5Vwlp+AAAAAElFTkSuQmCC;shadow=1;fontSize=15;fontColor=#4277BB;" parent="VO87fzGyyJs7BhhGHUsH-94" vertex="1">
          <mxGeometry x="21.25" y="140" width="67.5" height="67.5" as="geometry" />
        </mxCell>
        <mxCell id="VO87fzGyyJs7BhhGHUsH-103" value="" style="swimlane;shadow=0;strokeColor=#6c8ebf;fillColor=#dae8fc;align=center;startSize=0;collapsible=0;strokeWidth=3;" parent="2" vertex="1">
          <mxGeometry x="1390" y="710" width="110" height="200" as="geometry" />
        </mxCell>
        <mxCell id="VO87fzGyyJs7BhhGHUsH-106" value="RabbitMQ" style="shape=image;verticalLabelPosition=bottom;labelBackgroundColor=default;verticalAlign=top;aspect=fixed;imageAspect=0;image=data:image/png,iVBORw0KGgoAAAANSUhEUgAAAK8AAAC6CAMAAADvV+1vAAAAk1BMVEX/ZgD/////YgD/gj3/XQD/0b3/nGf//Pv/oIL/agr//vj/cBL/aCj/4tj/z7T/6t//WAD/u6D/rYX/9vD/4dL/3Mv/UwD/7+f/upr/5dj/jlT/ik3/kVv/cBv/ey7/zbj/l2f/p4L/fED/kGH/cij/mXP/tJP/o3j/wKD/nnH/h1X/xqv/e0b/ro//nHr/eDT/ZRqEaAm9AAAC5klEQVR4nO2di3raMAxGHWGawbpiCIRQwp0FKNvg/Z9uCV27rUtsZctF3fefB5CPheAjtuwoL2UQzXsqj948Gngspg/xIjeEWo4mAS8GB+V5wVAbyh9LkaEhZ7RVx+iCGKT1elahb7ApGul5ONq4hY9XbQmh9Jb5KXF8hzbb22iRK8jEOuMsxK6qklADcvlSOLXH6M+t2b3FcM6Z6xsZ11jKjOwxuldnCL1zzJntO3elN03O0h4jYYTYjyvyzf8h+32wXt8Wwt+4fRV1K/JlYf22+B+c5duwryO/8IUvfOELX/jCF77whS984Qtf+MIXvvCFL3zhC1/4whe+8P3ffK0hxPnSR/jCF77whS984Qtf+MIXvvCFL3yr93U8HwefGb66SV+yNu/Otox+Wp006XuwhYgY6VV0qabBmue7OBdH6C4Y6U0TbJ1ztb6K9knBklT/eM/STYVPVZzC4I2lSPfi0SuHuxc6PddRhl+EaRnf/TWn87SEbzaceUX/hG37POt/IAxH0zK+rUM6Hrwn3+w767etUA4zadugHPrQtkE5aNm2QUkYp3EAAAAAAAAAAAAAAAAgF0rJ2Ztw3gnVEnR9Ohwf3nJOTl9EGuunbsHNQ4PkwtklbRa9sezJjjvShPXG2rYf7GWVBMVW3bQmZNWwcd4olkiqCNq6dL0xb6e/GYz7RjxWo0pThIwL5r4K8tWM7odIUD0Q4wpK59WSDQLfeoFvvcC3XuBbL/CtF/jWC3zr5b35aoavpP/rrOchSb6WFvgfBN8EPb/R3Ok7uwjKrzLOAj4KSm92PsB3lIOk5ZIUOtp93W8haBaiyHLv/DQWpps1+B/GBWuUwVladm/oyynqfnrLeJXslKzafYGIrvd/cJW18gsAAAAAAAAAAAAAAAC5CNs0sEN7tZa4rl2EXqtV2LZECcKu8uXtcxSiY195M3GN7kXozix7n/tsbQzJx5jstfCpr+dPRo8d6TyOJtn+6HduXU6kh2KsaAAAAABJRU5ErkJggg==;fontSize=15;fontColor=#4277BB;" parent="VO87fzGyyJs7BhhGHUsH-103" vertex="1">
          <mxGeometry x="29" y="12" width="51.75" height="55" as="geometry" />
        </mxCell>
        <mxCell id="VO87fzGyyJs7BhhGHUsH-109" value="RabbitMQ" style="shape=image;verticalLabelPosition=bottom;labelBackgroundColor=default;verticalAlign=top;aspect=fixed;imageAspect=0;image=data:image/png,iVBORw0KGgoAAAANSUhEUgAAAK8AAAC6CAMAAADvV+1vAAAAk1BMVEX/ZgD/////YgD/gj3/XQD/0b3/nGf//Pv/oIL/agr//vj/cBL/aCj/4tj/z7T/6t//WAD/u6D/rYX/9vD/4dL/3Mv/UwD/7+f/upr/5dj/jlT/ik3/kVv/cBv/ey7/zbj/l2f/p4L/fED/kGH/cij/mXP/tJP/o3j/wKD/nnH/h1X/xqv/e0b/ro//nHr/eDT/ZRqEaAm9AAAC5klEQVR4nO2di3raMAxGHWGawbpiCIRQwp0FKNvg/Z9uCV27rUtsZctF3fefB5CPheAjtuwoL2UQzXsqj948Gngspg/xIjeEWo4mAS8GB+V5wVAbyh9LkaEhZ7RVx+iCGKT1elahb7ApGul5ONq4hY9XbQmh9Jb5KXF8hzbb22iRK8jEOuMsxK6qklADcvlSOLXH6M+t2b3FcM6Z6xsZ11jKjOwxuldnCL1zzJntO3elN03O0h4jYYTYjyvyzf8h+32wXt8Wwt+4fRV1K/JlYf22+B+c5duwryO/8IUvfOELX/jCF77whS984Qtf+MIXvvCFL3zhC1/4whe+8P3ffK0hxPnSR/jCF77whS984Qtf+MIXvvCFL3yr93U8HwefGb66SV+yNu/Otox+Wp006XuwhYgY6VV0qabBmue7OBdH6C4Y6U0TbJ1ztb6K9knBklT/eM/STYVPVZzC4I2lSPfi0SuHuxc6PddRhl+EaRnf/TWn87SEbzaceUX/hG37POt/IAxH0zK+rUM6Hrwn3+w767etUA4zadugHPrQtkE5aNm2QUkYp3EAAAAAAAAAAAAAAAAgF0rJ2Ztw3gnVEnR9Ohwf3nJOTl9EGuunbsHNQ4PkwtklbRa9sezJjjvShPXG2rYf7GWVBMVW3bQmZNWwcd4olkiqCNq6dL0xb6e/GYz7RjxWo0pThIwL5r4K8tWM7odIUD0Q4wpK59WSDQLfeoFvvcC3XuBbL/CtF/jWC3zr5b35aoavpP/rrOchSb6WFvgfBN8EPb/R3Ok7uwjKrzLOAj4KSm92PsB3lIOk5ZIUOtp93W8haBaiyHLv/DQWpps1+B/GBWuUwVladm/oyynqfnrLeJXslKzafYGIrvd/cJW18gsAAAAAAAAAAAAAAAC5CNs0sEN7tZa4rl2EXqtV2LZECcKu8uXtcxSiY195M3GN7kXozix7n/tsbQzJx5jstfCpr+dPRo8d6TyOJtn+6HduXU6kh2KsaAAAAABJRU5ErkJggg==;fontSize=15;fontColor=#4277BB;" parent="VO87fzGyyJs7BhhGHUsH-103" vertex="1">
          <mxGeometry x="29.99999999999989" y="106" width="51.75" height="55" as="geometry" />
        </mxCell>
        <mxCell id="VO87fzGyyJs7BhhGHUsH-110" value="" style="swimlane;shadow=0;strokeColor=#6c8ebf;fillColor=#dae8fc;align=center;startSize=0;collapsible=0;strokeWidth=3;" parent="2" vertex="1">
          <mxGeometry x="850" y="800" width="130" height="140" as="geometry" />
        </mxCell>
        <mxCell id="VO87fzGyyJs7BhhGHUsH-113" value="Elasticsearch" style="text;html=1;align=center;verticalAlign=middle;whiteSpace=wrap;rounded=0;fillColor=#dae8fc;strokeColor=#6c8ebf;perimeterSpacing=0;fontSize=15;fontColor=#4277BB;" parent="VO87fzGyyJs7BhhGHUsH-110" vertex="1">
          <mxGeometry x="15" y="11" width="100" height="30" as="geometry" />
        </mxCell>
        <mxCell id="9s07L28Rni-oPRvGki4q-25" value="Kibana" style="text;html=1;align=center;verticalAlign=middle;whiteSpace=wrap;rounded=0;fillColor=#dae8fc;strokeColor=#6c8ebf;perimeterSpacing=0;fontSize=15;fontColor=#4277BB;" parent="VO87fzGyyJs7BhhGHUsH-110" vertex="1">
          <mxGeometry x="15" y="95" width="100" height="30" as="geometry" />
        </mxCell>
        <mxCell id="9s07L28Rni-oPRvGki4q-24" value="Logstash" style="text;html=1;align=center;verticalAlign=middle;whiteSpace=wrap;rounded=0;fillColor=#dae8fc;strokeColor=#6c8ebf;perimeterSpacing=0;fontSize=15;fontColor=#4277BB;" parent="VO87fzGyyJs7BhhGHUsH-110" vertex="1">
          <mxGeometry x="15" y="52" width="100" height="30" as="geometry" />
        </mxCell>
        <mxCell id="VO87fzGyyJs7BhhGHUsH-155" value="" style="swimlane;shadow=0;strokeColor=#6c8ebf;fillColor=#dae8fc;align=center;startSize=0;collapsible=0;strokeWidth=3;" parent="2" vertex="1">
          <mxGeometry x="400" y="60" width="290" height="70" as="geometry" />
        </mxCell>
        <mxCell id="VO87fzGyyJs7BhhGHUsH-157" value="&lt;span style=&quot;color: rgb(66, 119, 187); font-size: 24px;&quot;&gt;微服务&lt;/span&gt;&lt;font color=&quot;#4277bb&quot; style=&quot;font-size: 24px;&quot;&gt;技术架构图&lt;/font&gt;" style="text;html=1;align=center;verticalAlign=middle;whiteSpace=wrap;rounded=0;" parent="VO87fzGyyJs7BhhGHUsH-155" vertex="1">
          <mxGeometry x="45" y="17.25" width="200" height="35.5" as="geometry" />
        </mxCell>
        <mxCell id="VO87fzGyyJs7BhhGHUsH-165" style="edgeStyle=orthogonalEdgeStyle;rounded=0;orthogonalLoop=1;jettySize=auto;html=1;entryX=0;entryY=0.764;entryDx=0;entryDy=0;entryPerimeter=0;exitX=0.846;exitY=1.001;exitDx=0;exitDy=0;exitPerimeter=0;shadow=0;strokeColor=#6c8ebf;strokeWidth=3;align=center;verticalAlign=middle;fontFamily=Helvetica;fontSize=12;fontColor=default;fontStyle=1;labelBackgroundColor=default;startSize=0;endArrow=classic;fillColor=#dae8fc;" parent="2" source="deoy2cFSpnk__pdyX7yM-125" target="deoy2cFSpnk__pdyX7yM-142" edge="1">
          <mxGeometry relative="1" as="geometry">
            <Array as="points">
              <mxPoint x="717" y="608" />
            </Array>
          </mxGeometry>
        </mxCell>
        <mxCell id="VO87fzGyyJs7BhhGHUsH-166" value="&lt;font color=&quot;#4277bb&quot; style=&quot;font-size: 15px;&quot;&gt;路由转发&lt;/font&gt;" style="edgeLabel;html=1;align=center;verticalAlign=middle;resizable=0;points=[];" parent="VO87fzGyyJs7BhhGHUsH-165" vertex="1" connectable="0">
          <mxGeometry x="-0.5567" y="-3" relative="1" as="geometry">
            <mxPoint as="offset" />
          </mxGeometry>
        </mxCell>
        <mxCell id="9s07L28Rni-oPRvGki4q-18" value="" style="swimlane;shadow=0;strokeColor=#6c8ebf;fillColor=#dae8fc;align=center;startSize=0;collapsible=0;strokeWidth=3;" parent="2" vertex="1">
          <mxGeometry x="1260" y="850" width="100" height="70" as="geometry" />
        </mxCell>
        <mxCell id="9s07L28Rni-oPRvGki4q-19" value="Xxl-job" style="text;html=1;align=center;verticalAlign=middle;whiteSpace=wrap;rounded=0;fillColor=#dae8fc;strokeColor=#6c8ebf;perimeterSpacing=0;fontSize=15;fontColor=#4277BB;" parent="9s07L28Rni-oPRvGki4q-18" vertex="1">
          <mxGeometry x="19.5" y="20" width="61" height="30" as="geometry" />
        </mxCell>
        <mxCell id="9s07L28Rni-oPRvGki4q-16" style="edgeStyle=orthogonalEdgeStyle;rounded=0;orthogonalLoop=1;jettySize=auto;html=1;entryX=0;entryY=0.5;entryDx=0;entryDy=0;shadow=0;strokeColor=#6c8ebf;strokeWidth=3;align=center;verticalAlign=middle;fontFamily=Helvetica;fontSize=12;fontColor=default;fontStyle=1;labelBackgroundColor=default;startSize=0;endArrow=classic;fillColor=#dae8fc;exitX=0.902;exitY=1;exitDx=0;exitDy=0;exitPerimeter=0;" parent="2" source="deoy2cFSpnk__pdyX7yM-142" target="9s07L28Rni-oPRvGki4q-18" edge="1">
          <mxGeometry relative="1" as="geometry">
            <Array as="points" />
            <mxPoint x="1035" y="790" as="sourcePoint" />
          </mxGeometry>
        </mxCell>
        <mxCell id="9s07L28Rni-oPRvGki4q-17" value="&lt;font color=&quot;#4277bb&quot; style=&quot;font-size: 15px;&quot;&gt;定时任务&lt;/font&gt;" style="edgeLabel;html=1;align=center;verticalAlign=middle;resizable=0;points=[];" parent="9s07L28Rni-oPRvGki4q-16" vertex="1" connectable="0">
          <mxGeometry x="0.3419" y="-1" relative="1" as="geometry">
            <mxPoint x="-5" y="-56" as="offset" />
          </mxGeometry>
        </mxCell>
        <mxCell id="9s07L28Rni-oPRvGki4q-20" value="" style="swimlane;shadow=0;strokeColor=#6c8ebf;fillColor=#dae8fc;align=center;startSize=0;collapsible=0;strokeWidth=3;" parent="2" vertex="1">
          <mxGeometry x="1011" y="855" width="160" height="70" as="geometry" />
        </mxCell>
        <mxCell id="9s07L28Rni-oPRvGki4q-21" value="Seata" style="text;html=1;align=center;verticalAlign=middle;whiteSpace=wrap;rounded=0;fillColor=#dae8fc;strokeColor=#6c8ebf;perimeterSpacing=0;fontSize=15;fontColor=#4277BB;" parent="9s07L28Rni-oPRvGki4q-20" vertex="1">
          <mxGeometry x="30" y="20" width="100" height="30" as="geometry" />
        </mxCell>
        <mxCell id="9s07L28Rni-oPRvGki4q-22" style="edgeStyle=orthogonalEdgeStyle;rounded=0;orthogonalLoop=1;jettySize=auto;html=1;entryX=0.653;entryY=1;entryDx=0;entryDy=0;entryPerimeter=0;shadow=0;strokeColor=#6c8ebf;strokeWidth=3;align=center;verticalAlign=middle;fontFamily=Helvetica;fontSize=12;fontColor=default;fontStyle=1;labelBackgroundColor=default;startSize=0;endArrow=classic;fillColor=#dae8fc;" parent="2" source="9s07L28Rni-oPRvGki4q-20" target="deoy2cFSpnk__pdyX7yM-142" edge="1">
          <mxGeometry relative="1" as="geometry" />
        </mxCell>
        <mxCell id="9s07L28Rni-oPRvGki4q-23" value="&lt;font color=&quot;#4277bb&quot; style=&quot;font-size: 15px;&quot;&gt;分布式事务&lt;/font&gt;" style="edgeLabel;html=1;align=center;verticalAlign=middle;resizable=0;points=[];" parent="9s07L28Rni-oPRvGki4q-22" vertex="1" connectable="0">
          <mxGeometry x="-0.1447" y="-1" relative="1" as="geometry">
            <mxPoint as="offset" />
          </mxGeometry>
        </mxCell>
      </root>
    </mxGraphModel>
  </diagram>
</mxfile>
